<mxfile host="65bd71144e">
    <diagram id="i0DIr7gENOSrJ5-ItNiX" name="Page-1">
        <mxGraphModel dx="894" dy="436" grid="1" gridSize="10" guides="1" tooltips="1" connect="1" arrows="1" fold="1" page="1" pageScale="1" pageWidth="850" pageHeight="1100" math="0" shadow="0">
            <root>
                <mxCell id="0"/>
                <mxCell id="1" parent="0"/>
                <mxCell id="2" value="&lt;font style=&quot;font-size: 14px;&quot;&gt;05. Function Execution Context&lt;/font&gt;" style="text;html=1;align=center;verticalAlign=middle;resizable=0;points=[];autosize=1;strokeColor=none;fillColor=none;" vertex="1" parent="1">
                    <mxGeometry x="35" y="40" width="220" height="30" as="geometry"/>
                </mxCell>
                <mxCell id="3" value="" style="shape=image;verticalLabelPosition=bottom;labelBackgroundColor=default;verticalAlign=top;aspect=fixed;imageAspect=0;image=data:image/png,iVBORw0KGgoAAAANSUhEUgAAAZIAAADwCAYAAAAqyeIfAAAAAXNSR0IArs4c6QAAAARnQU1BAACxjwv8YQUAAAAJcEhZcwAADsMAAA7DAcdvqGQAAEjxSURBVHhe7b0NcBRV2vf9f961RA0ZQiAJKDFRxr2XgEgEzAZQlw2pSire6yuJ8izsonctGCnBWl1Flg/LwsiisrolUJiFu3bFJT5ogo97m0qqQhZFPh4ETEAI+95OMHy4kA9CMiF+ldbzntPndPfpnp7JzPRMIOH6VTV0n9N9uqdncq6+ruv0+f+PjIyM/wuCIAiCiJL/R/5PEARBEFFBhoQgCIJwBRkSgiAIwhUR50iGFFRi0tQEsXGyCge2bRHr/ciosiNYmOuRWz58kJePBrl1eUjHH5+agbSGavyqKR1/mzcRrXVv43efyWqd22fgvfx0ueHH4W3VKGuVm9GitTlMa2t3VhGezO7G+6/uwV9lNUEQRLyJ2CP5trYEB14oROPBXlkSIaNXY/yqDdDNQMTkb8ODucChtbfghTy+XG4jEi7M2DAjcpIZmAde5UsMjAhBEMQVwMALbXlTkdR9DA11cvuKoBsX/UBrB//Hj1bmbVxsk1U6aR6k4Qw+s3spbmm7iF52/rPMKO3u6GaOzkWclFUEQRD9QdTDf7UQ14hah9DWAmSuKmadpuDSwZdxvHYXW7OWm/SiZUsJWs/JzT7QwlpZx7B59jycl2U61pAX0FJ5C97aJDcY2eVf4D6v3GCd/aG1d6CmvwySFoKCc9gpbbwWDpMBQ+DUHjxQdUZuAPfM5CEr83NxryYgbBaKe1dg6xN3MjfuT5j/h49lIUEQRGyIsSGZibQlSzHyc6vxQHUhWj4Ve2ihrQXJOPPCYtaVh4/VCJh07V+D9Ss3A4vqsKoEZr5E2041jIXdAAmj0xb3/IrdCBgYxkLkV2AYByXfsovdIbsBUnIiYYfGyJAQBBFHYhvaGj0TI3EQPs2IcLbg3MFepI1bILejp6FU5EQ272eda/c+bNbyI7cII4KFKMz3MqPyjmkUNuXjA58H3nsXso21yGeeSkud6cWcX7kBh7q9mLBIFoTgZ8+9g+rq6oDldd50H+zeVS1yInXcaJxhBkHmSKTHcc/MibjVfxTvGx7GGfyO7ZswNh33wIOVOenobThqejGf7cH7pzz4SVYEWaaPXsT84mIyIgRBxIUYG5JkDE2aikmrapAjF2OEVz/Q9SU3KsHwo8MnVyPkw9UPoaioKGB5ItTpIuGiH7vlqhNa7oUgCOIKJfbJ9q6DaHyhUBvZZSz9NEQ46SbVRViIUSlyVcODkZbQ2FiMHCZX+8CNRxIWwz3M+zC5x3ZhaSNV78ODMcPlKkEQxBVAbA3Jp41oZR6Jt2CmLHDg3Gn0sk48+U65HRM2o6HJj6Tch5AtS7DoIUwZ5sMeLfS1DMeYN5KZvw2jRC1GlRUis3sf6pRkfDDi6ZHsbmpBr2ci7r9dFiAd92d7cPLAcealME+l2Y+E7Il4RNbi9omY7DmDnTx/Ei48R1JVhap1D8sCgiCI2BFhsl0k0zOT5KaO5cXEwNFZrWqynXPnBuQUjZUb8Rq1FTgqy5qw7+cXGSMYtdWrJ9ol1oR9NC8yPox1Vb/ALfgCfy9+Gm/KUoIgiFhAs/9eFdyNFX/5Le688HcUP01mhCCI2EKGZJBz9++34rdTmK/zBRkRgiDiAxkSgiAIwhUDb4oUgiAI4oqCDAlBEAThCjIkBEEQhCvIkBAEQRCuIENCEARBuIIMCUEQBOGKQTT8dy1+XT8Hmdp6rLVG8lBeXwDxUnwPDqxdjeVx0jFZ+Hw7VqR4kPn4EFmisxCFO5Zjij4Nl287XihdJjeih59vCZIx8fkfyRKCIIjIGITvkXCDUoiOuIhWcYMyHRfiZUge7UbLbGB7wTA8K4t0Qk0N445vsbOWtbgjA7P+LIsIgiAigEJbVwysQ5/dBd+OQCPCGc28lK6mD2NsRDhDMOuVkUid3Y2XZAlBEEQkROeRaOqD5pzshkohJ38bliybBmNeRzUEw4+bdBib2wuNyRUtx9rDN/aJFUO1bRDcI7FO6hjNpI3BPZLHyl/Bg8YtsYe/1NCYjnWf4CEtjrgv3ib1XumoIT0GF/1SvZaw7hnw0sZTKGwf4xjienhdFX5xC034SBCEM5F7JIaErVAoNFUKOaxTY51WV6Vetx0t3jlYUqYId7DthSk1or7SZ5n6fVTZYkxpZx2dbPcFS0cfRtuhYNctpHXF8Zv3p+K+Hea08m7IK3sOD6Y0YE3eM8hjy5r9QM6yxXhM1j9WzoyIr1ary1vbgEuszFepGpofMDPrK/iO2I0INxJfYFW9MK5JucvZOt8+gsJ8Xs8NzBwkMWMs7skaHMI0LCxfqx0dyT179kgSPFnfsBYJgiAiI0JDokvabnDMPwRqfCzDW9xYZP3M7LD5E7P+RLzpMFqQilFapyjxTjY1RRTCajsE2ZO8aKk0DdP5lTVoGTYB2eq5oyIPD+UmwldXgXpZUr+yAge6M5CtyfjmIZu5Ir5GWVv3CY53s89zk+qffI9Uzw1oa5abBuwz6gaCHcO9N2EQpLdl0VzhbEbNpn3okvcwonvWfA38nu9tXpPgzaeLUUzeCEEQQYjQkAhVwZCStu1noo7jn195Bz7weXGf9tT9ReCTc9RtC7XEzBLRrliUcJBrenAhqIzvKVxgRsA7KU9s5t+F8cN6cPwj5YA8ZkjkasR0tyGklEu496z+GrThO6TLyyQIggiXCA1JMzpYpxiSlHTL0+6omyLrIhtKzTBMV+5yqzFx2XaLEeLRl1iN7ErECMujfAZGKHme0+3sP28B6utfQf0y5ivsr7DmWLROPEqGpWK0XNXwppr5EE6490wzZtfijO5WEQRBhEmEhkRI2maW1DmGn85/dAxdw6YhXwvpcNYiP9eDlrpohqxajZa7tkNft4EuSfuXFbhbFvVNPRqYc+HNnwv9YT6vbDq83Q14h4eUWHmh9xTelfkTvty/0u6+MEPi/wqpumhkuGihQS9mGMZWDz2+o4XwIrpnY7+Hx38NM3uB8GR7VdVWrLhXFhAEQShENWrLOvop9KgtSx1P1Oe3KaOKeDJZH2FlH7HFsI8w6qttZSSZwPpiov26A0Y4cUPyxJ1I8H+KP/3Hi/hYFmPRYtSXZMgNHeuoK+uoLW44NuANuWWtE1zaX24xKNqorawb8OJDCczs2Ylg1FYk90wh1KgtXRyr99CfMP8Pxl0hCILQIGGreMM8kveXJaNGMSyizIvjiiG6rC8G5vXi6DPfo8bhRUiNR9ah6t9T8enr8/HiR7KMIAhCEvnwXyIyvMkYKld18u71srJOnLbkZ4Zg1o4kePv9xUBmwJ7pQJvji5APYx0P9ZERIQgiBOSR9AOBoS1r6Esl9IuJsYfm2iIIwi1kSAiCIAhXUGiLIAiCcAUZEoIgCMIVZEgIgiAIV5AhIQiCIFxBhoQgCIJwRfSjtu7cgJwifU6PXrRsKUFryNkD+4chBZWYNDUBrdWFaPlUFl7FqEOP7W/Tw6KTEl8JYVdw5chZ1zi+9R9KYya7/Avc54217PLARdwPsR5shoPBCJ+1YfKRPl701V7K7YAHN2DfKymYS3PORUSUHskCZDIjwjvrAy/wpb+MyEykLalB5p1yc9DgxZodr6DcmBNLgb8Fzyd7VJcd5rxeffFGqZjf612nSbRQj1Jt/q9ahzm2xDXV15u6KsLwPIc1rqfejwD+Bz77O+wrd5g6Jn8bHsyFoo0TqVBZlPBpZ+qd5m3jU9nwmaXVOj6Fja4fc3nRJ0T9wPG34Bbx2X/t8BvmBszU0OEE3zcePLuDK4C2oyLoH80PqCjtAP7PGGQWkBGJhugMyeibkYBmdF6BT/zf1pZoxm1weSPWSR/zZpvaJ/HmUney1FW5HOh/4MnOf9x8puPuY2gI4m2IjrP/vZGu7lRMuGz37Mqki0sp3HuZZNPqEzBxx7WYVtrLTJgTQg/o2Mf0Um60RBfa0sJawIkXFsMviwTMU1lVgK+VMJdnXg3SL7yM47W7xHHjGtF4oUALP3EuHZR1OpaQmVnP2xl3qyxUMI/n5y5GmlbqHGqztqHuwz2dx4HKWly/QG+j2eHzBSf0xIz86b4UOfqElFwtsVT0jE7HcYxjnebqMhDtjqh7BqVSvIqrNS5P2Wu0r8PPU9huD23pOEkIy7abGjAqC3hdM172/WwSwsbn4sfOBZo6kZOboZW/iwLtc/oqbdeamyg2nN72DxHS4mhhraxj1ok3OZaJKgMllfkT8oz2NeyaFhthMS4x8JYhAGabCNOY3NNWbqCHz8TkmiOb9iGJ3bN3jWNU6edgk2zyYxeze9aGKbn8Rm3HB5ijhaLUa3MvF21+fntoy9q2PSQoPpuTDLYaMlPRw2fifPvQlZuKY9ox8j7VBftc5rl5+YM4xo6dxu4ZO2clcB+fnFWdnNQyYWuwUCZ7KHnnLFJ3OoW4+Dx3frRRSCtqIvJIeP4hZ1WN7OjHYhxf58u8BWKHcLi1GJNG1IqQWHUzhk4thv7zEUZkFOvg9ZBZoWFk/Nv49sto6YISUjPrgS1o0cqq0CpLVPi1j0s+iEZ5XONBIHPBBvPczMfKXMCNoH6esUgvmCnr+mDRYtZJ6l5DOQ7w6e9Z56l32o+VMyPSLqV2eX1KAd4vEz98EXoSx/BOVvc6nDv8y8CXFahp94L9/QfwWPk4NMjr1cJj3gIlPJeInKxOrOHSwqycG7E1+3tMgS92z5bndhqe1pr9yXjQFrJ76Y4u+JuuCzAiIlTyheh4hk3DQrsQWt08rOehrrWs8xIlAXDZYl3yefN+PzKZ8dF1W7LLVflithiGSipWau3yjlTW272eL+dhT7uz+mZ2+WTWmerHCeljM8TjwZSsNmzm7bNy3tlr1zZJSifHUS6aG998bJDXxdsGpiwy2w4lgy08P6HiqWr+WA3Vh6hj1+voqfVx7qTcCcwQ8/a9uI/PHq7dH6mkyh8aVOnvSmaIlzmFHX+EXU03wHvHt3KbiCURGRI9bMQNgHhiF53ygW1bxA7h0MU6c33/TxtZpz8K12vKTMwrmD6WeRgb45BvWYDRPAG/9zn27CH4tnajZiySlXxLa7XuoexC1+e9GDoiPIGQxybxp+4T8mnah/qmHiAlTXaKXGqXGRnDQ/Cxp/lTGJp1l6XTDE0GHlRzJOXhHxkL3mhknkVJ4DnfKFU9CKHLokoIm/LDp1BjM4z8nvkqzePrV+6Fb5hqsH5AegrQ9q/AcIMe6+edrOYtyA4oouQxP04+0QrdFqtAWLgSzsFoaGQdWomunW/SUKp6EMtwjN2WpJvMgIupFaNKKAviJxfNYOd9Szmf0z0JJoMdLrzNJMVgG/R1bl+NYajtWjqj7p0AqNLfm97RDI6Twdr8r2vZ3+X3geEtEnVzzRU0/Hcsrk8CetuUMFdM6cXXMTdQgs/bmeHwjpNJadYZZiXiUtMnohPNT2N/ODZDEKBt0he2HIktbBV3NjEPMkX/fApcp0X5XE4hOme8uJkZCW+Jck/UEJkGj1vL1TjQ1fSh2SFpHoz6hM2efmF6OlElhXmHluLQ8fIwjGyXL04hIWfiLRctEuBG24qGDadPGexwYPfZ2VMLfe5QjE7xaN6lcWy9TdNIpfka+D3fK78zHtI6hZZSYH0wCQUiLK4gQ9KMr4PFIWJCgvR8dIThigX1X3ayf3VjUYoc1iW9bnkCtxkCvvRjwtw93MtKRmGZyB5p8NwNM4hqOM55ZFhw1GPFouZouGqkXO13NqNmtgyVrN2HJNZ5R25MuCpnKmaUpctthhaG4V6FbJstkY6gipdcdHY564BhendOYcGQMthhIjy1n8ktQTjnDgXPxZj3QyxmvkshQAV0CGYVZCCzHFhS29/yDYOLOBgSs8PW8hIOCXJnRDgprUjNW9jZha9Zn502LoKcjMYWdJ5kx01fzX46giEFBUjrOohzrkd3ebEm39qhWoxE3Sc43s2MTMhwlNB1N/IHEWKEk7S8g568ji089HQ+y2sLS/Tggv5XqeWJ5HqfiPCft0QdWmznRzjD7knqjT/I7ctE3ZnATk0rcw6fqPDQU1fWBNvTtR8dxj2ri8AjiadctKT9jPTSmIewKJRXYJXBFmzGefZ9GfmcYGie2gSb98kI+9xWGhp9zCNZHNbw6oU3fsfOc01Azg317KEF3yG9fyPGg4oYG5ItaKluZsZAJOF5Uv0E68DDhedgGg+OMpP4bBlvS3j7t1Wh9dbiwHqeqNfK+Kgrnjjn65VIk0aNJ+tPdE7FJHncpKnncWK9mTOJHpHzsIZp2GIkjln9bJFgV+v1ZLvOG6UiWR2s3hnW9qYGILdUHJffiXf398g6Dh9VJdrjnfxQuZ/RthGa4mGlROQs4+vB3hOpR0N7oinSVVeBGp9+jDj3gQierutXrhYJdnl92mJLtj97JAmen16K+EmRj/QxQyR6OKaPDtiAj6rSwyR8EYl36xPuMrxV6VPCTMHeE1mGY+0es1PkoR2fB1OWyePy23AognvGw0tagl29Pnuy/aPd+P+4J+cZDusznPm5uPHSw0G6V9FQKRL8ol0x8sw0oLbQEw8ftW8PyEk1lIrBA/p+zh4LN4js/Er4KfS5+2BTvkywq9fn9F3/gJlZX8F3pH90fq42SI/ENYFDcPWy8U3BhtsS4SGGbE5octaSJ5x5eF0VfjHiU/zpP14EKexLQg4lp+G/brmCciQDlQyMsCf38u/CeFZ2/ksyIu74EeaWjwR+2hnirWTCgGvrV5ERCSDU7AgaPB/3FVLDG6RJOEAeSSzgISLbSCz1xTvCJX28mEgQoaC5tuIPGRKCIAjCFRTaIgiCIFwRkSG55ZZb5BpBEARBCMgjIQiCIFxBhoQgCIJwBRkSgiAIwhVkSGIBn0Mp5Fu1bjDfTg/+1nksmIkXZ9Vg041ykwjKz39Sifd+EqbEAEFcBZAhiQXa7LGRTzYXHqHkcGNH6V1LcZe/Cov+JQsGOVzkzD79Trj845+1OD9uKRldgpCQISGAGzeg5KZmVH4Sga7MVc0WLNp5EKNyNqBUlhDE1UxELyTy4b9ffPGF3Lo8WCU5Q8mQBtY9iA3Yk7LcmHFVrRcT0zlLiXJCtW3AQ1zLUrFHOU5ga1uVCQ0bJzlcjk3utrsBa9TZhzWp3mxzskUNVdaWh7SWIrmp0NEb4TM467LIdgljXUbZh8eNfbh6pa6Xbz1WcrJKE0LT6rhSpi5yNno1xi9Ixhkub6xJMneiJXkqMpPYOaubMLJoKoZyUTRjok1VWtkq2czb9mIjzoxYasw+rV+X4zVx5HUJrG1rYmwOE3yW3lWDAv/LeOCfgRo62nxXt3yBvxc/jTdlGUEMVgaURyI6c1Nq1KI7YJMhfUGbndU6Kyuf8ZTLl/J6u7xqKCnRcNoOhaa3YLS9BodS5kQnDBQAnxyyAKP2l8sp7MtxANlYbkxZz+oXZQN6feUpVtaDA2sVZcPEmchKbEajU0iLde6jWYesyxpr8sQl5lT8nKFTlxrSyY0He82p+tmx3qnM4ErZZG0WaFUdsy9unYrr9/LjEpBZxA1MFVqTspCkzebMNfaLkcCMh7i2KvSy68hU1C75dXEjZ78uXeWTXw83PuJ4q8qnZ57aNluCzBJdfrYZQ8fMxM/lNkFcrQwgQ7IW+cwjUKVGTdgTf74XXfvfMes25eMDnwfee5UOm3kC+tTX4UuJhtl2UNZigpd5N4YHshk1dT7XUq4aiwqQM0yVsRXTyl/S1Rq1ySN7cPwjWb/pBNsjESMM94WRmIyhPZ34XG5aOPccWgxNfNYJH2nCpaRkiyFRjYNaP+SOLOZBNKFLei/+E83MktuODYWiFXPpYBUsGlejZ2IkDsKn6PWf48ZC1alhHobuoThedx8MvW1m3/uz+3aJ3b/b5KbKm08Xo5i8EeIqYeAYkvx0JKmiQA50fRn9lH59SYlG3bZ23Wa72lKi9uQu6Q5iBDh1rTjPDMf4e+X5Fo1jV3IKDUpI7ueeUOaMP/kL/RZtWTDVFiJjnfznu8yndWZ4jvPQFFv9tu08Mxy6B8Ge8seNZZ17o9UgRMtoZvySTG0ZoS/jEK6KEv+2l9ECs33V07HQc5rd31G4OT5aYgQxYBg4hsRJqc5G0k1q5y80riMhlJSou7Z5vkVvWy6z55ma4W4YZnsi9rJOVq7yXMiFblPQis9Q7KtUwlqMf/iDX4Vn3lJksif/Rj3Es+UgLsm6PjnHntYNgbEajLu1GSfCDWuFA/eE9OvSl5i1vwut62Wb7DMnFAUxJok3MzNyHqdVLTGCuAoZQKGtZTjG1eUW2RThNIQMaVLuQ2ZoatFDmDLMhz02FbfwUKVEXbZd9yF83cwjKe9DglRqSVSte1gWhIEWqspAoaGmKGR/L+2vFcaCh77QgDW6BDBbAqa2DxGe0eg8LT0O5p2UBHokwfD8fCqg5hmkp2Ih+WYZPlrADE74bePTRrQyj8Qb5fBdzrcXesMLX507jV65GkCIsCBPtldVbcWKe2UBQQxiBtyorexyIRWqE3zUlh+H1t6BGjnCSatLqTFHS1lGWNlHbDFsI6v6bFsZ0SVQR30Ftt+1f41VqpQbkn+/Bfji7yh+WomsO2idiIS5PnrLNmrLV4u8Un3MllBqzFE/F8OqlSJGbWWddRh9pI2kMjv41oPs6XyqHFnFtvVRW3ouwoLtWAHzSgyDwsNmzOPRdGj1kVnKqK3pndpIqSHGOcYic1UBvjZGjdlGVjEsI7OCjQgTJQz1/Axj1FZgu+qIMJVQo7bu/v1W/HZKAnoP/Qnz/0ASU8TgZsAZEiICuBHK77QOB9YME5Thv4wbN6AuB6h8bzHKZZFbnIwMLxsHdZjtACZxNd6blYzaYPdMezBIxaevz8eLH8kyghikDKjhv0Rk5N2ULNdMHpvEvBt7gv5fi1H55ViU3KWMenLFTFwfcOoFSL6VPd1faJbbA5kF2DRrKs4fcDIiD2MdD1GSESGuIsgjGdQ4hLbsLywahH4xMWIcQlvBQkQDDT7X1hJsdAxpEcTVCBkSgiAIwhUU2iIIgiBcQYaEIAiCcAUZEoIgCMIVZEgIgiAIV5AhIQiCIFwxoAwJf6FNn6QvWnU7QsWDlQt+ifeK09l6Ov741C/xt5n2N/QvJ+Ka3lswHvfIktgRbtviHv3xdrkZI+6ZWYT3+Pm1ZQYekeXxRJxTnOuR4njdV+JqZEAZEv82MW+Tpm0RDXzqjSVWPY34wqdGCZxJmMOneomNJgkx4Egbj0ezgcPb3sYDr/JlD/4qqwhiIEKhrbgiJ3wM0B7hGiV++D6Kftr72ODH2YtAbyefobIbF/1Aa0fA1IqXkTP4He9otxzHblkSO+LZdh+kDkeCvwW7W+V2P7Gbz0Tqvwj+HHayk33P7Avv989ODEoG5AuJQScL5B5H0Vi5ocjCOk4gyFEnEQwG9yoWA01tmJLr1SZz/ABztIkjxYSRa/Hr+jmARXpXKfPxySEnwKdM8sgVF1flt2GzMZW82D9TW2eoE0Yak0sexgR9n+59yrHxgod+ZgB1b+N3n8migDIe9inCZGMuy6N4Te+Y2VP33+YNx85XT+F2doymeKvW9wEPwzyZLRs+tQcPVJ0R6xr8OjLw2baLmDVvIjQlEnvbt8/Ae/k8ZCfobajGr3aJbzp02xzxOaVKr8ZJ9T5Y2vYzz6IaZREYBe38Y1sC7wVvN+eiUs6vYyIuyvb5cY/iY+xMLsL9ch5Py3VxQnzucCCJYCIaBo9Hwo1F0ShD2vVA9XlkLtjAujqGJrjEy5ptOhZ9GREdD6ZksY5/7T50eedocr2aVO8kPjU8n94ecl2yaDLr8H04xg2LNo28VU0xe5IXXU0fGoYgu3wyjhlaJdvRws7x60WyUoMLYxWiY62sHzYN+Zb6eHAGn50Cbv2x2SkhzYM0Xi47rntmTgT+Sw/PVOMwJuJRS44lHfdrHaEI35z0TMT9YeYadu+q1tp9rSHYN8Ta1gyVU9usA84fpoSO3rZ0pqHb5sZxBtJYB2x8LnU3biDVtuu6MXleeDkOLS/x1C+FEWPX+6TMkUSSl0rILsKsTvP6b81R8hyaEQn+uQkiXgwaQ8KlXXFwo5xinPFpFVq6xiI5mLpdhLTU6R5AoA5JQyU3MKZMr2YoDGlee3grMKzVUKrKBwvDZBXS4t6P7tE41zvy8+fxTnU1qu3L+t/IHULz1z1H0ZuRYXSS92Qxf6jhqBHP371rj/Ik7sfuZj8Skq1z1p+s05/WhWFKGxl+pxka7gnouQWntj34SVYU57p9IibjKP4cpAMW9+Bj83N/dpQZmnTcHoaB/GuV6Nw1A8Y9qGg6e+ZB6fvvbmpBr2e49JyYAcxJZx6Icm1RQBLBRDQMHkMyIgFDpy41RnXlrFK0JuKNFK+aoHkJQqNdNTZCH34CsvPZBvdWuo+hQQ9zcXioS5HiVfVWBNK7kXAlR4uWSTD+8TweKipCkX1Z8p9yhz5oPYN/Gp2kB/eMBf7JjKIBfzo3Rh7JJ20LpvfC4R1p/zwhn8Hvth1lFl0fGRW7UVG3Jns0r0D/zO89pYT2LivDMJxdx5WV4yKuFgZVsp3PLmsq8omFCx3FH+F1aOEtbih8hxUPg6GEt+xhLS0HUuLV8i26DO8HIXTpI8KlR6J7GVp4Ky0dP4GaIE7HH+dNZFZNDwGFCkNdBlqP41fGdQ3D/TE0JjzvoH9mfbHkKS4LYrAEQVwOBo0h8Z9oZh7J40gbLQuc4DriSVlICrVPlJxfWYMWbyGW5KfiUKWprCjQw1uLMcNxtJYfHbrxYN5JoEcSJW49EoYWPmGPuo9kZaL1QGCi3HgC1oa0XhGP5gFoo5XCpe0iej2ZuEdKJD5SbPU4/vrfZ5hHcjdWqhKKsUQNVS2wJvxDI41+vjuDSRLBRDQMIEPCJVBF2Goc++vSw1jGi4mfLpYJdvOlxZxVMtmuc+45+A5C2cdW7wqhKZ8EW9hKIsJbrN4e1qqbhz1ci36ZDG3lt+FQrDySWMCe7HdenIj7s7stYSoePnqfJ3vzZYhn3nD8M2YeiXgJ0AiXZcwQ59BenAwDnnQ2Qk9s0RLQej6lj7bZ5/0zcycnzxP78MT2+6dElcZne2SCXbatLTHydljb75/iAxR4m0UYfmCPNlQ3XPggAuF9mdcW6QumJy9whfoE/Nu0u0UBQYQB6ZHEEP6SIR/RFVb+giCuREgimIiCQZUjuaxoIanAEV0EMTAgiWAiesgjcQsfcVXCkxp+HFJfOiQIgrhKIENCEARBuIJCWwRBEIQryJAQBEEQriBDQhAEQbiCDAlBEAThCjIkBEEQhCvIkMQCPl+WMelinTELcGzIQ3n9K6jXluewhk/8GBdm4sVZNdh0o9y80klcjfdmrcbP5SZBEJcPMiSxoG4e1vMJF7leiSyKHfUozXsGeXm1iOfMKaV3LcVd/ios+pcscIM2m7GDQdUMbowMbc9zqPVPxe/vWiALCIK4XJAhIYAbN6DkpmZUfrJFFrhk02G0QJ9W32TUvROQZJ8Z2QXln7yMTzzFA8eLIohByoB7IXFU2REszDUnohNyt2K9r7oHsQF7UpYbs+uq9UJSdzmmGLpMPnyQZwpOhWrbwJDFVYWqOLa2VSndsOEhrum4sHY1llvenuflBazblnQ3YM3sCubHSPLn4v1l2TaZ4VN4N28D3tDWeUhrKZKbCm3eCJf/nYyO/amYwj531/7t8GXNYZ9BvsHv5W/0w3KPxFv+ogzlX+A+qJ9T3IORdcG+L+vMAPq8Ze9isbGP4z1nRrAuqxN/2Pkc/iGLdO7+/Vb8dgpoyg+CiDMDyiMRHU8b66hM7Q6jY2GdmKWu0ofMkiMoVHIKSbnLtc6J12tSuazjF6qFvO3FmNLOOj79eFsH2VfbocguZ0bEaHsNDqXMwZKyMBQO+8SLNTsKMGp/OfK08Fc5DiAby8vzzPpF2YBeX8mnse3BgbW6EWEkzkRWYjMaHUNaXkxJqdE+b1LuHM0IfOCTssEOXgfXWoH0OBoafexwUzUS+T+Dd5gi0MXufT4z7Pr93rwfmLLI/D44/PtayM+v1Vu/L4N/NcKXmIW8RLlNEES/M4AMyVrksyfTlkr70z6HPe3mq/K2jE35ZqenwzwBfWZeMa17KizSJGrHZxBm20ERiokfGE/mm9lTN+uYDeldFywqQM6wU6hZqWdPfFi+qQGXvOPwGN/Mvwvjh/Xg+EeyftMJtkciRqh6J4nJGNrTic/lphXmJejaKt37UGfxBpahztCt5wgJYWN/m6EJCGvVzcNbASqStu+DnXOzvG+O9RrN6OxJQLKDIfn4D/NRXEzeCEHEm4FjSPLTkaQKQDnQ9WX0M++eX3kHMw5e3CdHX9k9hqjb1q7bbFdbtEkeY0R3MCPAqGvFeWY4xt8rz7doHLuSU2hQDMLPPdGbM61z142vpgxZo0xaKbTlhaFZiOws9hDQqBtTDg91Kfdk2TR2n6xYlCS1AQ1ODxG7cNrPDJVH6tIQBNHvDBxDUnemzxFRSTepnf9CjEqRq2HCtdBFqGU7unKXW4yJu7Z5vkVvWy6z55mdpBuGJeM2uarhZR6GXOW5kAvdwNDcUjF8uCQDvkolrMX4h9/FVSha9TysZTUUSnjLHtZiaOE+MI9Dvx9Rj3ibiZs9zKj5d8ltgiD6mwEU2hIKhPY4ukBK2eY+ZIamFj2EKazzik4fpBmmOqvLtmVne1+5HgIKAhcU4noQ6x6WBWGghaoyUFimezherMnPwKX9tcJY8NAXe4Zfo+VPxFJqCU8xejpxKdFmjMJGhOky849gRoo99MWQ4a0Zi4KM1mo/I40p804WBXok4TEWyYm96OyRmwo82c7v6bpYibUTBOHIgEq2c4/hg/ZpWKiEiX4tY/A8NLV5f6oZQipJxaG1TqEQJ2xhlnqRHDfyKX20zQcBaOVaeEYPY+nvS7DOdrZIsJvtB4bOgrJosXwZkY/MSkTOMvXFRP6OSS3O6x5HfSly2mtxv54z2VQrku/GC41iKVeH5fbsQlPPWBT8JMrQEDcWw5hLoIahDER4K4nVB3grlcwD8er3ZDlGNkXpkdw4Cd6eJtQ7GJKPz7Vp/98yIQLjTBBExJAeyWCGG6H8TutwYF5WAmX4L4MPoc0BKt9bjHJZFD58mHAhOi6LqFewocuSe1dg6xN3ou2/ivG0EGwnCCIODCiPhIiMvJuS5ZrJY5MyAhP0/1qMyi/HoiSKt8Szy+fYkuz9R/C38e/Gir9UoYqMCEH0C+SRDGr4eyalyDFesmTYX1g06OPp3gZ/YVB7sZMP0Y3VwIFI4HNtMS9qvcOLiARB9C9kSAiCIAhXUGiLIAiCcAUZEoIgCMIVZEgIgiAIV5AhIQiCIFxBhoQgCIJwBY3a6k/m7sSkAn06Ez/Olk9Ex165GZSXMGbrHIzU1gOPufbJo8jKlpoep7ejceWzYv0qwapp4qwh46hjQkTG7TPwXv4wHN5Wjd1ZRXgyuxvvv7oH4b2i48HKBUWYfHEPHqgC/vjUDKQ1VONXu/yyPo5oGkH69DvW3wcRO8gjCZfRqzF+1Qb2JxEtzCAwI9JRm4nG+XwJx4hwnsVZbf/t6JAlKt+9NlFrr6nB4Y+SG66tLbjtSXM6Fm54JpW9JLcGOKyTeDAXOLRWnwyznzoJ3jk5SgbrU+2odfzN//C1a4gYE1cZbAYXc9vhMP+f9hthvwV1jr1g+w4CyJD0F9PTcT17IuqqkNv9RQ8zMN6ZuFZuDiq8qUjqPoaGIG/V8znSuIHpb2+kqzs1QGZ4wNN2Eb3oxtlWYDef0dR/ESdlVd8wT/oi0NvJZ0LtxkX2k2zt6Adv5LLjR1eKk8bR4GPAhbaGFFRi0tQEucV+kNWFaPlUrPdV58VGnBmxFONuFWVqPX+zO23JUmQaU9A248QLi9lPYQEyVxUjTZaa9KJlSwlaz8nNvtDCWsy5nj8Ll2SRgIeuCvGNErIaWtaC0RdexOevqbMLB+6nooW4RtRYQ1v8nNPb2B/xNFzXlImzzIgF7GcJt0HzmPh+4nyT8U1DKsZke9DbsB0XvXMwJlENry3EyI0rWBlfZ/RzaE0LXWUdc3iznnsBc5CprVslfDl9y/iqxzOMt/dt5Qb6ObhHIiagTMoC3jWOUecis7VhyC7zYxcDTW2Yksu+D1b+AeZosweo1xYqlBcev8Hr1bOB/12EJ6KU2Lk8/AzPv/0Msk68godWfyjLIkALcYUhgx0wU0OQ34IlZKYivxN5Pt/+VNbvbBATwHKPJL9NaT/OvwU51xwO/Qnz//CxLIwPA8ojEYbiPOvgC3FALoYhuHODta66GWlFlUhTJPWGTl2K9Asva/WNB3uRNn01hsi6IQWPI7Ozymj3gGZEOFvQwre3HGQGgBsXvT48I6KFkra2yM7aCy9f50s/hpf8NftwfZbT+ZixyDosQ21sqfVhZMFORc/EizHc6LDyhOw5uG5vJnynPRh+lwiVDS1jRuQiMx7a8S/i7PA5ljBavOCGgM8arP0RDTNngzZnVF6Gt7RQ13a0yBI7oWR8+fxhSfuFJLO2GH/4sl0tTML/cGV9nm3Cyi/nYU/7BGQ7hLOyyyfjmHEcuz5mnPUZrHkuYUoW62h4+6ycGzvt2nQVSpvkszYj9SANlfQXo8oeAjbp38caHMI0PKjMzB30t6CHzCp9wrjo9bbO/PzKGnQFUUMdTL+FAWRIFmA08zZaq/UOXoV5E9PH4tLBKrPu08U4cTIBI+9Qpkc/WYXjtUIA6dsjTbiUlGwYEo1bJ7nIgTij5zB4Z8yfGnx6p92fSfG9u3BxeCFGTpfbBs/irHodFYfRgVRcZ+zHvI8aWd+zD22WsNxLSLqZfR7j+M3MS2EGJ8ww2m/WV6O62r68g+d/LncIgS5Axv+w1D9ifdr/sODHhZDxdSuF3NDIniZLAjVoGkrVjkZOs6+IprWwDkoYrUC9G008TJGa5p1UyzBng0WEx/mV+cpDgNQeShkrtwXufgvsO26fhnyHUGfcfwsfvYj5xcVx90Y4A8eQjL4ZCejF1yG8gN626FXyvq0tYYZnLMatqkEOW8YXDCbpVt7JtxmehAoPo2kekrboo8PCQMv5KB4WX5QQWV/855IiFBXZl4fwfD/NwBhKxrehVDyZ6p6O+ZQYAZvewSGn+DgPb8h2+aJNfBkWQpUzs8Q8dpVjmM0Z03DPBu8mx/6/+vbr+I3Y5YrkZ8+9I6/zGUxlT3kJOc/I7fAeOvpET4rLxQwVCWLxW+DaO0m6J6FymX4L8WDgGJJzp5kZCU1Cqtr5z8T1gbOoh8S/TQ9bVaF36tLBZUyYt/F19hyLx8XDbl7uVehe0nznkWHBUY+Vy+Nz8Z2sDYUbjyT+cDEyGXJYyzoB9gcbeQfCn25TMaMsXW4zeKdVwp8kZdts+YA7qhGgHiuW8HRgTMO9A81su/l/69tP4D/FLlckH65+SF7nKzjIHNDeA6/I7Vg8dKzFr5dNA5TQleblWojBb4GrpKYUovAmuc25jL+FeDCAQltb0HkygVlhM69hsgtdn/di6NRis6O8sxiZSc04I0NZkdGMr+1jBTVDNhbJd8rtmOLBdRliTXTuYj22PIu2hlQMtz/19LQZHf/Qsgg8Eh4u62EeSZS5nsvtkYRN3ZnAYaNamdCqD4WIj0+wJWT96NA7DPZEGv5TqAi7ZJY4DTsm3ND1pQwbsc79QZtHYsHpt+BrQ1ef4UUuSd0Gb1aq3NaJ82+BJ9sjle+OkgGVbOcew4nOqZgkw098yZQdOw9NNR4cZYSmcopGoWWLUz7FCT5iy2wzZ9VSLfGu51MEW9CiJfD1fayJ/Oh5Fme1JLcID/ERVb7Tsooj3wURYScPxpTy9aMy38FHTcnj+EuJN88R+wbp3L/75BiQaP6hfPdaDToSpyFLa5+PFNsXgUeyGR2PiwS7uD6x9EeyvU+MkAF39z2Ysoyvh/suBx9JYw0Z8GSrdQjxMrxV6VNCC8Ha5vFxj2lI6uZhj0+/Hrbkt+FQBE+hAZLPfKFke0j4yCbtPjnKYC9DHU9g69+jNspK7THC+C2w7/Td/TC/U8f3ixibDjODoxip/vgtfHQWmtj0Lbcj3qaE3mwnCIIYlHCl0N/izgt/R/HTb8qy+DCgPBKCIAiib+7+/VZUVfWPEeGQR0IQBEG4gjwSgiAIwhVkSAiCIAhXkCEhCIIgXEGGhCAIgnAFGRKCIAjCFWRICIIgCFfQ8N8rCE0rRJfN1eaxsmuXBGI5xkEPhE/KqE+50ttg1zghCIJwz9XlkYxbjYq5TyFgNvUrgekVyMgGzpbrEyD2bUQ4IaV2GZdWivYs065IxMy/+nQrHDHlypi5cpMgCCIMKLR1pZCRioSeY/CHpeMeO3p74Di9PEEQRLgMIEOSi6Vz38SaccC8ojdRUcqXTViaIqs53OPQym11KU9hCy+7JwNIvAOPG/usxjxtB7NtnenTN6Gi6H+KDe14vu//xBr9WMWz4ftumZ6rXJe1rXC4Ns0+M6iET9q4sUIRi+ISuKoX4RLfMW16eVMV0Yqh8Kgt5nl5+W1PVrBr4eU7MVSfXFKdMNKYcNJ6rMrD66pQVbUu7pPKEQQRPwacR5J5z5uY2fUG5pY/jOqzN2DSXUpnf08KGnc8rNXN3d2OSbOloWh/FQu0slNAzxFs5Ova8hy2aQeHQwaKSu9Fl9Z+DVqYQSpSjMUNEx4zrmvjsa+QmR1eCE0XltLyHMpMvP03i+4ubXr5JKdw1vQKpGK9DLXx8BkwZq5p1BKyJ+Cb8hdxlk8nP70NTeX70HvzZGGU2LG3FaSaobraNowpVWV8CYIYLAy80NbZGizYu19b3XaSGYZhN2od9vQf3wYc24qX27Uq4EQNGnsyMD5CzyAULbsXyfb/F46fBVKTc7VyDeW69v735/gqMSksxTI9h6HlOHr2oUl22v2ZFOfTy1/POv4Aidy9c3FWuQ6+X29iqrnf6Rp0yFBcB9tXFbS69q4JQMN6ox4V2zWDYzdYbz5djOLipxH/aeUIgogXA86QtJz8X3KNceI5zK14Fbyvyky6QfMK9NBSReljmJQodosNp3D8hFxlbKt+2DAcAx5mBM5dnABPgAtl6p1oS+k0JMiavrh2hId5LCvMY7euwJiYfh8EQVwpDKpk+1fHRGhJXZYrnT8RnEtNbRhTaJUWHlrGOn+YXlIjD13JunDgw42145TlbIWsJAhi0DBoDAkPc90wYb41+W6nowtfJd6G6UH2MUJV41bj8Qk3iPUrASOcxD2ECORwI4GHnoZPwHC5aXDxjAxZsXPPDd8judTkYx7Jkj4HBYhk+1asuFcWEAQx4Bg8HgkPc2kJdnPklDkqS9L+Kv5yDMo+ev1+vFx3BNBDY9ldqD72lVZz2amYBd9pL7wyPHTd3u2KHG5fUrt8hJeo5y8l6qEm50T+Zvh9bB8l/HSphifPdSlddm5fBB4Ju26RYBfnF0tgsv3kBd5iAv5t2t2igCCIAQe92U5cXh5Zh6p/T8Wnr8/Hix/JMoIgBhSDKkdCDCQexrqqKjIiBDEIII+EIAiCcAV5JARBEIQryJAQBEEQrogotEUQBEEQdsgjIQiCIFxBhoQgCIJwBRkSgiAIwhURG5KFz7ejpfYUWt7pBckhEQRBEFEn21/aeAqF7WMw8fkfyRKCIAjiaiTq0NazR5LgSflebhEEQRBXK5QjIQiCIFxBhoQgCIJwRfSGpPka+Md+A33CcoIgCOLqJHpDUp+Aia9cg0I+gmvjt7KQIAiCuNqI3pA82o2WUmB9QQYyHx8iCwmCIIirDXc5kvZrsFmuEgRBEFcnlGwnCIIgXEGGhCAIgnBF1IbkpTu64G+/Rm4RBEEQVysRGxJ9rq05Y5NQQ9OjEARBXPWQsBVBEAThCsqREARBEK4gQ0IQBEG4ggwJQRAE4QoyJARBEIQryJAQBEEQriBDQhAEQbiCDAlBEAThCjIkBEEQhCvIkBAEQRCuIENCEARBuIIMCUEQBOEKMiQEQRCEK8iQEARBEK4gQ0IQBEG4ggwJQRAE4QoyJARBEIQryJAQBEEQriBDQhAEQbiCDAlBEAThCjIkBEEQhCvIkBAEQRCuIENCEARBuIIMCUEQBOEKMiQEQRCEK8iQEISNx8pfQX29WN4v88pSnTyUy7r6+uewJl8WX2k82o2Wd3qxUG5y7plZhPeemoFH2Pojxb/EewvG4x5RdcUgrrEIK9NkAcPddafjj0/9En+b6QHSxuNvbP2Pt8sqCx6sXHBl3hNn+vhceb04avv+48kAMyQzkbakBpl3ys2rgKFlLZi09ShGTpcF7KcxcmMLxsyVm1ctXqzZ8QrKF8lNC2pnry+L8Zis7Ys3Sp9BXt4zeNcnCyzUo5TV5eXVIrBaXJP1XPxa+tng8E5k9nfYV56AzbKIuDxww6d19v1NfQJq2juwYuO3siC+kEcyAOjtAYbf1V/PFoOFHhxYKwyCWDbgDVkTby51JyPb0cD1Bz+gorQD+D/JmFsviyS7O7oB/0WcZOsnO/3ART92i6orht27qvHAq9Uoa5UFDHfX3c13R2sH/8ePVvhxsU1WWfCjbMvbeGDL8SvunjjT9+d69vEx2JdyHjsflQVx5H9kZGT8X7kePnduQE7RWLnB/nAOvozjtbvExujVGL9gKoaKLfbNV+HAti1inR83rhGNFwowaWqCVmQ5VvM4liIzSW6iGSdeWMxuEXM859Vg3K2iVMV6fHCuffIoMrAe50asgPdmUdZRm4mzFWJdPOmvwJhEuXl6OxpXPivWp1fgttJUnJt/GElb52AkL+vZh6bH5+I7bQfRfla2+eRhbfsljNGP41iO5XWT0VXehtGl06DdFaWeeySjL+zD19mp6Jo/C5fkdV63V2/fdt3KseIzH2PHTmPn9sFXy56ZC7zWzzZ3JybxMg0/zpZPRMdeuRlneAjpQVvk6NL+cty/kj/r86f7UuQME+X84vNKRc/odBzHPJZ7AdNxYe1qLK8TdSai3RF1z6B0kyjJK3sOy1P2Gu3r8PMUtutt2nE6h2y7qQGjsoDXZ1cw/8W+n+1zdTdgjbYfL2duZlMncnIztM/7Lgq0z+mrtF1rrv5ln8K7dgPJQ1qzrsGLD0XujfAQ0pPKb/hk3dv43Wd8jYd9ijD8gL4t900+igeqzljqP/vxL3E/u3z+Wzq8TTEIt8/Ae/npckNtO/C8AcfGDXHdky2nPorXLMaEh5BmwOh6Tu2Rn1nAPQ7xeU16G6rxZ9xt+0wSy/Eh2ub368en8FrnRKMd3u6vdvHeMAJC/B7u/v1W/HYK8Onr8/HiR7IwSiL3SDQjMgotWwpx4AWxmB35AmQyI9JbrddVofXWYowvmCnrGWx70ohaUV/djKFTi9nXKRhS8DgyO5nhke0ekEaE49/Gt19GSxczwEb76rn7JiF7BeuUX0Tj/Ew01vowsmCnYfCGlrHO+CLrYHnd/Bdxdvgc3Pak6gV44d1aiG/Kef12dCROQ6oeXmKGJiO7DT7tWLFYDdQcXN8gz8vbxjRklb0k6zmsbc1QObStsQttDalIcghnXfvkHKBCP69oO0O57oTsCeyaWXkPO8f0NjSV70PvzZPF5+YGsiCVGQ95fG0bxpSa9ySuLFrMOkneEXJvoRwH2EMn7zz1TvuxctbZtjPjodenFBj5ChF6EsfwTlb3Opw7/MvAlxWoafcizyGclVdWAGzSr5l9BmTjCSMPk4icrE6sWduAS94CzYit2d8D76Q8Uc3u2fLcTnnPnmF1yXiQGR9Zq/HSHV3wN10XeUgrbTweze7G+6+yp3K56B19uNya/0vM6uQexdt4/5QHk2fohoN1mKxT1Nt9oO4M21fkPDjCC5F1246iV5bHH+mFyHO/1hDYST9SnIHP9Gt7dQ9OZswwcxGss78/44y8Z9U4zA9nxoB39vpnev+UMAD6OaxGKETbHLatGWtez+4Lsu+25I7C4s/Xwef5CjPVH0kciNCQMI9h+ljmBWxE6zlZpDCkoABpXQdx7lNZgC1o4cbitpkYIkvA6ht1D+XTRuaSjcL1o8Wmxq2TDMMSc9iT+OevyT+xisPoQCqu03IPLyHpZvbErj+lsz/Djr0+JHhn4lpZwumo1Z/Wn0XXaeD6NKuhceroMXcO8xZ8OKefl7ddoXTmGtwT4N4Gx6lt4LtPjuF61vGr18P57rVZigexGX6fHwkjlMf10zVGfcde04PiXHvXBKBhvXl8xXbN4Dh+jgB+g9erq1FtX95+Hj+Te4TisUn8qfuEfJr2ob6pB0hJk51iHrK5kTE8BB97mj+FoVl3WTrN0LBOeZmSI7F1uPHmjUbmWZQEnrF+5QbFgxGfe2iK+Ujrq+PeCecUamyGkd8zX6XpgdSv3AvfMNVg/YD0FKDtXz+S25GSjtsdE9FhIjtRzl//m3WYwz0ycX0Gv1M6UHx2CicxDGMi7RQvA3+t2oO/ynX+OdilI22k6KEe+TEzlKdOyXpmPJrZZzc+c9+EaluDe0f6fWs9g3/6PRieKjbD5xq0+b9CqhlAMvj4D/NRXOzeG+FEaEjG4vokZmHbQngBnacRbXrn29oSnDg5FuNW1SCHLRZPJi54cB3/G56ejus1j4MntuVihHt0fOgyvAzg0spM0yixDvpzzcORx260dfg9bZYOPCrYOc5dnACPkXSXcK9CuW41vNYX147waF6a8Zm3KiGyPvlPPFFUhCL78svn8aHcIxSftzPD4R0nk9KsM8xKxKWmT0Qnmp/GHi8y8KCaLC+xxQ/6xJYj0cJH/cgm5nWn6J9PIX8u3lc+lxmm6gsvbmZGwlui3JP6Alaq8j1So30Kaz2OX2mewi/x3lPRjV46yY2Hzmd7LPkGbbQVb1dblHDOlQ4PMRnXbQ1jafmajAzpWTEDMtaD3uYz4edYQrQdDIuhCYsf4Uw7kHrjD3I7PkRoSJrxdZdcDUbyzab3wRiSOkquhYcIYfGlCr1Tl8bZmPjxDXsKEDCPRAsPKYuSA+mTilnGcb6L05ClGpPEVKthyUgVuZAIudTUhjGF6v14CWNKpzGvQg+bZaLJwT0PRa9yrL6YYblQuPNI6r/sZP/qxqIUOWjA65YncD3sdRmNgSu4t5GMwjL1sTsP5cuygf3lxmfioatIUEN5YlFzNPzpU65GA+/8Zajl/YsT8WSMhsLyHIgZApJhHFl3RcOH1eana/kc474Y/YUcBMC8uPs1Q1CEyTiKP4ebw+ij7WBoyfWIcOulhkeEhmQXuj7vRVrRBsfw07dHmnApaSpGG8NzF2D01AS07n0uCi/FyWjtwtes/0kbt0BuR8/QsjkY2XMMfh7W2bsLF3kOwZK3iJ7vLihfthZC82K0kbdYiJHTvawD3y5DWRHAQ0/DJ2C43NT5ulV6RlquJvwnlktNPuaRLFGGFkeCG4/EizX5PEyjdIiqkaj7BMe7mZEpDxWM8uE0e9Iy8gcRMuom+Syv5R3CdsMigoeezmd5mXdl5fyX0mAy7+SJsM8twmDeklDDmGP39Kk9bdswnobZk7RjIjkUctQV55Hi2HskD6+rQlVVFdbpiZeYoYyG0nIicp31gCtzrIbAacQXv48JY9ODGORgbQdyz8y7MdlzBp9FmLcSXuoNaGuWmwo82R6rexZxsp2HnxoPjjLCT5YQ1LnncHzLQSQU6XXFSDj4MlqMnEkoxDsieps5q5ZqiXd7Mt2/TSTwA84dDjfPMcI43uHqyKnN6HhcJNjNME+LLdkeHD46Sj0uiyfejbafxdn52/G1EUISSX0jLBYRPAcCJBh9z7NoYx6IEVIrTcXFSDwS7kVpCXbz2idt7Y9ku8h5WMM0bDHyGKx+tkiwq/X2lwPfKK2Fz2vuE/jyoBOs7U0NQG6pOC6/E+9avAI+ykq0x0dMDZX7GW0zwyPOx8NKeh4m2Hsi9WhoT1TuZz3e4clz/XMvS8bxCDyS+pWrRYJdXp+22HI/zx5Jguenl5ivGhnipT8zzPIkT7wbHaMfZf/Fk71yn5yLeD+C39nuXUdx0sM8HNn2rE62LetixZvHvtD+Tx19t/Z/TGg9jp180MA8eV/Y5z5seA3snhxQQoH6YvPidu/6GIdhfvb3iuUAhJBtS5R7pn0fzJMzcyph8ug38PpvwC4HV/7jc8KK3TLhYe1/N0Q3/HcAog3PHVFjDnslLiOBQ3D1svFNwYbbEuHxAyreOYsJTWMw8fn4hjPiAg/5zBuOnZF2mveuwNYn7kTbfxXj6Yh7W4F1SHNfBA6J1st+0hzFMF07PH/CjIt1KHKkiN9C6s4MzPqzLFKJwT3TidgjIQj3ZGCE/h6FTv5dGM/KjLAPESU/wtzykcBPO1ERXdTvsvLIjIlIUMJgfXM3VvylClWuO8R03J/tQW8nz3uEwzA+QMtKWjp+wsoiz2PEh5c2nsW09lEORiRW98yEPBLi8sBDRLaRWOqLd4RLXLyY2L/YXwrkSfkoQjjRoHk/zHDJTfvLhn3CvQblJUuO+qKlK9x6JHyanFJgfT99/1eNISEIgiDiA4W2CIIgCFeQISEIgiBcQYaEIAiCcAUZEoIgCMIVZEgIgiAIVwwiQ7IWv67/Aqu05QgKY6pIZ77tHG951YXPt6Oln1TNBjP8Ph59Pr4T1REEIRhEhmQZ3sq7BS/kbUeLLIkdoeRVY8ij3Vjx02ux/XF12suByeWWCN78vAdtPz3bL+pwBHG1Q6GtK4ZvsXN2F3w7hmGwvDJ5eSWCh2DWKyOROrs74nmnCIKIjOheSFxUh1Ul5gR5XfvXYP1K+f5k/jYsWTYNhlqubzteKF0m1vlxkw5jc3shFuaKV1ktx7Kn1sIdyzHFmD7Dhw/y8tEgt0K2bcBDXIXoWHsHamwyq6PKjhjnDWg7LJzkVQVW+VeuhaHuw4+za0dY9+GhmBUpHmTavREuhZt1GE0XCg2tET71uznpo01qV5XRlXVclrcrq0VKDNvkdC1Su/a2hWehSxNbj+VtLwEqanBdqS4jzKfiFwJdfUsEy9kGjFlklba1z9yGs8Onsc/FymuPYXjBNCQESBSb8sX269Z5aeMpFLY7zTv1MNZV/QK3fPF3FD/9piwjCCIaIvdINCOSikNreRhJLKYhYJ046+i7KvW67WjxzsGSMuWplG0vTKkR9ZU+JOU+hGxZNapsMaa0M+Mg233B0tGH0XYo2HUvzG1jxkMcv3l/Ku7bsS1giu9o4DraD6Y0YI2cEn3NfiBnmTnd92PlzIhwzXFez2VUWZmvUjU0P2Bm1lfwHQkS0rp5jpjeheuFlO8DlKnf+5YIhjY7sC4x7DvtwZhC/Rmddcaq1C5b1M6Yd/TaLMmyrol9GVYpXtZWqS4/LOR8zenyOcElgvmU96lYb5xXa3uuouFy8zTN6GjXy67x3HwuQawLe3GjpMoXi9mVncJm2my4Wd+wIwiCiBcRGhLmMeR7mRexIeBpnzOqrBCZ3ftQZ8yXtAxvcWOR9TOzw2b1m3UvYtNhtLDuZJSavPZONgyLSlhthyB7khctlaZhOr+yBi3DJiDbdeI8Dw/lJioSqXy67woc6M5A9iK+xWVjmeFolLWa1oaih6ERXDNAgz+J616Gpp0ilR2ZIQhHIliVGOYaJBiertR7goSfXkIq8xZUed7vXlsfIMVryg87yPwygkkEc8XHs4rR4vv1qgJg7DO3Sc8lQLtl+kwMxz6cMo6X0+lnOQSxmq+B3/O9zRvkvImni4vJGyGIGBChIRmLkcOAri/NDiCA9jM4L1cj5fzKO/CBz4v75OirAG8j6rYXYlQKkFmij+riyxxkylr39OBC0Cz8KVxghsMQYNJmue3B8Y+UA/KYIZGr4aJpuoclEcw6+yYl68I1SFStFM3D0bVS7FokqoJklASTCNa8CuW6S6eFrxrJFSYTpyFLP5YtQSWG668BFzpOH4Az4RLEQCFCQ9IMTV0yFCnpFg9h1E2RdZENpWboqit3udWYuGy7xQiL6UtgHiU6EmF9EFenSRdKftAFmDSp1QprjkXr7CLDUEXU8hIiPGQskUgEc715eVxTQyozStbQlfB8dLy4LgoxwUCJYBmSY16FHjbjIbteWRcW3EvTj9UXp5mdNSN9Lc4MHI1eghhwRGhINqOhyc+e7Oscw0/nPzqGrmHTkK+FdDhrkZ/rQUvdvCg8CavRctd26Os24EIvVVWo+ssKhK+zVo8G5lx4802luryy6fB2N+AdHoZj5YVeq/54oHAT19r+Cqlj5WYIrn1yCcYk+tDFwz6xlghuVc3Zs+g6DYxUwlLXPlmIkUrIKWyCSATj4hlp8Jh3MjcCj4TLFzOPJCMcBcux38Pjv4aZWzs82R7pd00QhBMRJ9t5+ElLVBshIiUExTr19Wv3IckIIc1B0v41eCssjQk+Ystsc1X9ci3xbiTy+2qbDwKQ5ZnsSXrKMr5uvpjodN2rwk229yGv+kbpM3i3PRvL5UuLy3M78a6uQV5XgRpfhlUelS1WWdgfYVfTDfDO6mV3wQEljKPJ+MqRUVpOxIVEsDY6SjlukpZ419tmnsTKTPgu2s4dibdjYJcIZm3XMA/EkD5eget8kXgkdvlisTgl21+6owv+puvYFdg5iYtcf8jzb7jnXlFCEER0kB5JvGEeyfvLklGTtwFvyCJR5sVxyxDhb7GzlvlWO2yymLyzn96mDHslwoaL+zzzPWoKnN/NeXhdFX4x4lP86T9exMeyjCCIyInYIyEixJtsS2Cz/u1eLyvrxGlLfmYIZu1IgpdeoIsRzDA/04E2pxc8H1mHqioyIgQRK8gj6QesLytyeM5E8VAUAl5MJI8kKvh9XIJkhxcRCYKINWRICIIgCFdQaIsgCIJwRUQeyfXXXy/XCIIgCEJAHglBEAThiqg8kq+//lr7nyAIgiDIIyEIgiBcQYaEIAiCcAUZEoIgCMIVZEgIgiAIV5AhIQiCIFxBhoQgCIJwBRkSgiAIwhVkSAiCIAhXkCEhCIIgXAD8/2Too+BoGPiKAAAAAElFTkSuQmCC;" vertex="1" parent="1">
                    <mxGeometry x="40" y="80" width="402" height="240" as="geometry"/>
                </mxCell>
                <mxCell id="4" value="" style="rounded=0;whiteSpace=wrap;html=1;gradientColor=none;" vertex="1" parent="1">
                    <mxGeometry x="460" y="85" width="360" height="205" as="geometry"/>
                </mxCell>
                <mxCell id="5" value="&lt;font style=&quot;font-size: 14px;&quot;&gt;Global Scope&lt;/font&gt;" style="text;html=1;align=center;verticalAlign=middle;resizable=0;points=[];autosize=1;strokeColor=none;fillColor=none;" vertex="1" parent="1">
                    <mxGeometry x="580" y="50" width="110" height="30" as="geometry"/>
                </mxCell>
                <mxCell id="6" value="foo" style="text;html=1;align=center;verticalAlign=middle;resizable=0;points=[];autosize=1;strokeColor=none;fillColor=none;fontSize=14;" vertex="1" parent="1">
                    <mxGeometry x="490" y="115" width="40" height="30" as="geometry"/>
                </mxCell>
                <mxCell id="7" value="lastName" style="text;html=1;align=center;verticalAlign=middle;resizable=0;points=[];autosize=1;strokeColor=none;fillColor=none;fontSize=14;" vertex="1" parent="1">
                    <mxGeometry x="470" y="200" width="80" height="30" as="geometry"/>
                </mxCell>
                <mxCell id="8" value="fullName" style="text;html=1;align=center;verticalAlign=middle;resizable=0;points=[];autosize=1;strokeColor=none;fillColor=none;fontSize=14;" vertex="1" parent="1">
                    <mxGeometry x="470" y="240" width="80" height="30" as="geometry"/>
                </mxCell>
                <mxCell id="9" value="getFullName" style="text;html=1;align=center;verticalAlign=middle;resizable=0;points=[];autosize=1;strokeColor=none;fillColor=none;fontSize=14;" vertex="1" parent="1">
                    <mxGeometry x="600" y="121" width="100" height="30" as="geometry"/>
                </mxCell>
                <mxCell id="10" value="" style="rounded=1;whiteSpace=wrap;html=1;fontSize=14;fillColor=#1ba1e2;fontColor=#ffffff;strokeColor=#006EAF;" vertex="1" parent="1">
                    <mxGeometry x="586" y="151" width="214" height="120" as="geometry"/>
                </mxCell>
                <mxCell id="12" value="firstName" style="text;html=1;align=center;verticalAlign=middle;resizable=0;points=[];autosize=1;strokeColor=none;fillColor=none;fontSize=14;" vertex="1" parent="1">
                    <mxGeometry x="470" y="160" width="80" height="30" as="geometry"/>
                </mxCell>
                <mxCell id="15" value="myVar" style="text;html=1;align=center;verticalAlign=middle;resizable=0;points=[];autosize=1;strokeColor=none;fillColor=none;fontSize=14;" vertex="1" parent="1">
                    <mxGeometry x="710" y="220" width="60" height="30" as="geometry"/>
                </mxCell>
                <mxCell id="16" value="fullName" style="text;html=1;align=center;verticalAlign=middle;resizable=0;points=[];autosize=1;strokeColor=none;fillColor=none;fontSize=14;" vertex="1" parent="1">
                    <mxGeometry x="620" y="220" width="80" height="30" as="geometry"/>
                </mxCell>
                <mxCell id="17" value="Function Scope" style="text;html=1;align=center;verticalAlign=middle;resizable=0;points=[];autosize=1;strokeColor=none;fillColor=none;fontSize=14;" vertex="1" parent="1">
                    <mxGeometry x="640" y="151" width="120" height="30" as="geometry"/>
                </mxCell>
                <mxCell id="18" value="" style="rounded=0;whiteSpace=wrap;html=1;" vertex="1" parent="1">
                    <mxGeometry x="180" y="369" width="658" height="381" as="geometry"/>
                </mxCell>
                <mxCell id="19" value="Global Execute Context (GEC)" style="text;html=1;align=center;verticalAlign=middle;resizable=0;points=[];autosize=1;strokeColor=none;fillColor=none;fontSize=14;" vertex="1" parent="1">
                    <mxGeometry x="214" y="322" width="210" height="30" as="geometry"/>
                </mxCell>
                <mxCell id="20" value="&lt;ol&gt;&lt;li style=&quot;&quot;&gt;&lt;font style=&quot;font-size: 14px;&quot;&gt;&amp;nbsp;first line&amp;nbsp; execute -&amp;nbsp;&amp;nbsp;&lt;/font&gt;foo assign value : 'foo'&lt;/li&gt;&lt;li style=&quot;&quot;&gt;&lt;font style=&quot;font-size: 14px;&quot;&gt;&amp;nbsp;second line execute - print foo : 'foo'&lt;/font&gt;&lt;/li&gt;&lt;li style=&quot;&quot;&gt;&lt;font style=&quot;font-size: 14px;&quot;&gt;&amp;nbsp;execute - set&amp;nbsp; &amp;nbsp; &amp;nbsp; &amp;nbsp; &amp;nbsp;4. execute - it call function execution&lt;/font&gt;&lt;/li&gt;&lt;/ol&gt;&lt;div&gt;&lt;span style=&quot;font-size: 14px;&quot;&gt;&lt;br&gt;&lt;/span&gt;&lt;/div&gt;&lt;div&gt;&lt;span style=&quot;font-size: 14px;&quot;&gt;&lt;br&gt;&lt;/span&gt;&lt;/div&gt;&lt;div&gt;&lt;span style=&quot;font-size: 14px;&quot;&gt;&lt;br&gt;&lt;/span&gt;&lt;/div&gt;&lt;div&gt;&lt;br&gt;&lt;/div&gt;&lt;div&gt;&lt;br&gt;&lt;/div&gt;&lt;div&gt;&lt;br&gt;&lt;/div&gt;&lt;div&gt;&lt;br&gt;&lt;/div&gt;&lt;div&gt;&lt;br&gt;&lt;/div&gt;&lt;div&gt;&lt;br&gt;&lt;/div&gt;&lt;div&gt;&lt;br&gt;&lt;/div&gt;&lt;div&gt;&lt;br&gt;&lt;/div&gt;&lt;div&gt;&lt;br&gt;&lt;/div&gt;&lt;div&gt;&lt;br&gt;&lt;/div&gt;&lt;div&gt;&lt;span style=&quot;white-space: pre;&quot;&gt;&#9;&lt;/span&gt;5 . print the personName : &quot;suraj jagtap&quot;&lt;br&gt;&lt;/div&gt;&lt;div&gt;&lt;br&gt;&lt;/div&gt;&lt;div&gt;&lt;br&gt;&lt;/div&gt;&lt;div&gt;&lt;br&gt;&lt;/div&gt;&lt;div&gt;&lt;br&gt;&lt;/div&gt;" style="rounded=0;whiteSpace=wrap;html=1;align=left;" vertex="1" parent="1">
                    <mxGeometry x="180" y="409" width="470" height="341" as="geometry"/>
                </mxCell>
                <mxCell id="21" value="&lt;div style=&quot;font-size: 14px;&quot;&gt;wiindow : { }&lt;/div&gt;&lt;div style=&quot;font-size: 14px;&quot;&gt;this : window&lt;/div&gt;&lt;div style=&quot;font-size: 14px;&quot;&gt;foo : uninitilization&lt;/div&gt;&lt;div style=&quot;font-size: 14px;&quot;&gt;getFullName: f&lt;br&gt;&lt;/div&gt;&lt;div style=&quot;font-size: 14px;&quot;&gt;&lt;div&gt;&amp;nbsp;personName: uninitilization&lt;/div&gt;&lt;div&gt;&lt;div&gt;after 1 line execute&amp;nbsp;&lt;/div&gt;&lt;div&gt;foo : 'foo'&lt;/div&gt;&lt;/div&gt;&lt;/div&gt;&lt;div style=&quot;font-size: 14px;&quot;&gt;after 4 line execute&amp;nbsp;&lt;/div&gt;&lt;div style=&quot;font-size: 14px;&quot;&gt;Call a Function Execution&lt;/div&gt;&lt;div style=&quot;font-size: 14px;&quot;&gt;&lt;br&gt;&lt;/div&gt;&lt;div style=&quot;font-size: 14px;&quot;&gt;&lt;div&gt;after 5 line execute&amp;nbsp;&lt;/div&gt;&lt;div&gt;&lt;span style=&quot;background-color: initial;&quot;&gt;personName&lt;/span&gt;: suraj jagtap&lt;/div&gt;&lt;div&gt;&lt;div&gt;&lt;br&gt;&lt;/div&gt;&lt;div&gt;&lt;br&gt;&lt;/div&gt;&lt;/div&gt;&lt;/div&gt;" style="rounded=0;whiteSpace=wrap;html=1;align=center;" vertex="1" parent="1">
                    <mxGeometry x="650" y="409" width="188" height="341" as="geometry"/>
                </mxCell>
                <mxCell id="22" value="&lt;font style=&quot;font-size: 14px;&quot;&gt;Code Execution Phase (CEP)&lt;/font&gt;" style="text;html=1;align=center;verticalAlign=middle;resizable=0;points=[];autosize=1;strokeColor=none;fillColor=none;" vertex="1" parent="1">
                    <mxGeometry x="239" y="379" width="210" height="30" as="geometry"/>
                </mxCell>
                <mxCell id="23" value="&lt;font style=&quot;font-size: 14px;&quot;&gt;Global Memory&lt;/font&gt;" style="text;html=1;align=center;verticalAlign=middle;resizable=0;points=[];autosize=1;strokeColor=none;fillColor=none;" vertex="1" parent="1">
                    <mxGeometry x="684" y="379" width="120" height="30" as="geometry"/>
                </mxCell>
                <mxCell id="24" value="" style="endArrow=none;html=1;fontSize=14;exitX=0;exitY=0;exitDx=0;exitDy=0;entryX=0.714;entryY=0.003;entryDx=0;entryDy=0;entryPerimeter=0;" edge="1" parent="1" source="21" target="18">
                    <mxGeometry width="50" height="50" relative="1" as="geometry">
                        <mxPoint x="540" y="419" as="sourcePoint"/>
                        <mxPoint x="630" y="370" as="targetPoint"/>
                    </mxGeometry>
                </mxCell>
                <mxCell id="25" value="" style="shape=partialRectangle;whiteSpace=wrap;html=1;bottom=1;right=1;left=1;top=0;fillColor=none;routingCenterX=-0.5;fontSize=14;" vertex="1" parent="1">
                    <mxGeometry x="14" y="401" width="80" height="200" as="geometry"/>
                </mxCell>
                <mxCell id="26" value="Stack" style="text;html=1;align=center;verticalAlign=middle;resizable=0;points=[];autosize=1;strokeColor=none;fillColor=none;fontSize=14;" vertex="1" parent="1">
                    <mxGeometry x="24" y="601" width="60" height="30" as="geometry"/>
                </mxCell>
                <mxCell id="28" value="after all execution completed&amp;nbsp; GEC pop/ Remove from stack" style="shape=callout;whiteSpace=wrap;html=1;perimeter=calloutPerimeter;fontSize=14;gradientColor=none;direction=west;" vertex="1" parent="1">
                    <mxGeometry x="14" y="620" width="120" height="140" as="geometry"/>
                </mxCell>
                <mxCell id="30" value="" style="rounded=0;whiteSpace=wrap;html=1;fontSize=14;gradientColor=none;" vertex="1" parent="1">
                    <mxGeometry x="14" y="542" width="80" height="40" as="geometry"/>
                </mxCell>
                <mxCell id="31" value="GEC" style="text;html=1;align=center;verticalAlign=middle;resizable=0;points=[];autosize=1;strokeColor=none;fillColor=none;fontSize=14;" vertex="1" parent="1">
                    <mxGeometry x="30" y="547" width="50" height="30" as="geometry"/>
                </mxCell>
                <mxCell id="35" value="" style="rounded=1;whiteSpace=wrap;html=1;fontSize=14;" vertex="1" parent="1">
                    <mxGeometry x="180" y="510" width="470" height="160" as="geometry"/>
                </mxCell>
                <mxCell id="36" value="argument :[firstName,lastName]&lt;br&gt;firstName : 'suraj'&lt;br&gt;lastName :'jagtap'&lt;br&gt;myVar : uninitilization&lt;span style=&quot;background-color: initial;&quot;&gt;&amp;nbsp;&lt;br&gt;&lt;/span&gt;fullName: uninitilization&lt;span style=&quot;background-color: initial;&quot;&gt;&amp;nbsp;&lt;br&gt;&lt;/span&gt;" style="rounded=1;whiteSpace=wrap;html=1;fontSize=14;" vertex="1" parent="1">
                    <mxGeometry x="450" y="550" width="200" height="120" as="geometry"/>
                </mxCell>
                <mxCell id="37" value="&lt;ol&gt;&lt;li&gt;execute - print arguments&lt;/li&gt;&lt;li&gt;execute - myVar assign value&lt;/li&gt;&lt;li&gt;execute - print myVar&lt;/li&gt;&lt;li&gt;fullName assign value fname+lname&lt;/li&gt;&lt;li&gt;retun to GEC&lt;/li&gt;&lt;/ol&gt;" style="rounded=1;whiteSpace=wrap;html=1;fontSize=14;align=left;" vertex="1" parent="1">
                    <mxGeometry x="180" y="550" width="270" height="120" as="geometry"/>
                </mxCell>
                <mxCell id="38" value="&lt;font style=&quot;font-size: 12px;&quot;&gt;Function Execute Context (FEC)&lt;/font&gt;" style="text;html=1;align=center;verticalAlign=middle;resizable=0;points=[];autosize=1;strokeColor=#006EAF;fillColor=#1ba1e2;fontSize=14;fontColor=#ffffff;" vertex="1" parent="1">
                    <mxGeometry x="219" y="490" width="200" height="30" as="geometry"/>
                </mxCell>
                <mxCell id="39" value="&lt;font style=&quot;font-size: 14px;&quot;&gt;Code Execution Phase (CEP)&lt;/font&gt;" style="text;html=1;align=center;verticalAlign=middle;resizable=0;points=[];autosize=1;strokeColor=none;fillColor=none;" vertex="1" parent="1">
                    <mxGeometry x="215" y="520" width="210" height="30" as="geometry"/>
                </mxCell>
                <mxCell id="40" value="&lt;font style=&quot;font-size: 14px;&quot;&gt;Local Memory&lt;/font&gt;" style="text;html=1;align=center;verticalAlign=middle;resizable=0;points=[];autosize=1;strokeColor=none;fillColor=none;" vertex="1" parent="1">
                    <mxGeometry x="494" y="519" width="110" height="30" as="geometry"/>
                </mxCell>
                <mxCell id="41" value="" style="rounded=0;whiteSpace=wrap;html=1;fontSize=14;gradientColor=none;" vertex="1" parent="1">
                    <mxGeometry x="14" y="482" width="80" height="40" as="geometry"/>
                </mxCell>
                <mxCell id="42" value="FEC" style="text;html=1;align=center;verticalAlign=middle;resizable=0;points=[];autosize=1;strokeColor=none;fillColor=none;fontSize=14;" vertex="1" parent="1">
                    <mxGeometry x="31" y="487" width="50" height="30" as="geometry"/>
                </mxCell>
                <mxCell id="46" value="" style="edgeStyle=elbowEdgeStyle;elbow=horizontal;endArrow=classic;html=1;curved=0;rounded=0;endSize=8;startSize=8;fontSize=12;entryX=1;entryY=0.5;entryDx=0;entryDy=0;exitX=-0.002;exitY=0.2;exitDx=0;exitDy=0;exitPerimeter=0;" edge="1" parent="1" source="35" target="25">
                    <mxGeometry width="50" height="50" relative="1" as="geometry">
                        <mxPoint x="400" y="670" as="sourcePoint"/>
                        <mxPoint x="450" y="620" as="targetPoint"/>
                        <Array as="points">
                            <mxPoint x="170" y="520"/>
                        </Array>
                    </mxGeometry>
                </mxCell>
                <mxCell id="47" value="call" style="text;html=1;align=center;verticalAlign=middle;resizable=0;points=[];autosize=1;strokeColor=none;fillColor=none;fontSize=12;" vertex="1" parent="1">
                    <mxGeometry x="120" y="475" width="40" height="30" as="geometry"/>
                </mxCell>
                <mxCell id="49" value="" style="edgeStyle=elbowEdgeStyle;elbow=horizontal;endArrow=classic;html=1;curved=0;rounded=0;endSize=8;startSize=8;fontSize=12;exitX=1.05;exitY=0.57;exitDx=0;exitDy=0;exitPerimeter=0;entryX=-0.006;entryY=0.836;entryDx=0;entryDy=0;entryPerimeter=0;" edge="1" parent="1" source="25" target="20">
                    <mxGeometry width="50" height="50" relative="1" as="geometry">
                        <mxPoint x="182.52999999999994" y="620" as="sourcePoint"/>
                        <mxPoint x="97.47" y="579" as="targetPoint"/>
                        <Array as="points">
                            <mxPoint x="150" y="630"/>
                            <mxPoint x="150" y="610"/>
                        </Array>
                    </mxGeometry>
                </mxCell>
                <mxCell id="50" value="pop FEC" style="text;html=1;align=center;verticalAlign=middle;resizable=0;points=[];autosize=1;strokeColor=none;fillColor=none;fontSize=12;" vertex="1" parent="1">
                    <mxGeometry x="90" y="518" width="70" height="30" as="geometry"/>
                </mxCell>
                <mxCell id="51" value="OUTPUT :" style="text;html=1;align=center;verticalAlign=middle;resizable=0;points=[];autosize=1;strokeColor=none;fillColor=none;fontSize=12;" vertex="1" parent="1">
                    <mxGeometry x="160" y="800" width="80" height="30" as="geometry"/>
                </mxCell>
                <mxCell id="52" value="" style="shape=image;verticalLabelPosition=bottom;labelBackgroundColor=default;verticalAlign=top;aspect=fixed;imageAspect=0;image=data:image/png,iVBORw0KGgoAAAANSUhEUgAAAcYAAACQCAYAAACSwst3AAAAAXNSR0IArs4c6QAAAARnQU1BAACxjwv8YQUAAAAJcEhZcwAADsMAAA7DAcdvqGQAADCOSURBVHhe7Z1taB3Xue//N5d703PYSq1tycE42kZC6bGjKuyWVilWZINBNiItJ5L8xUkvSuIk8v2QBvwCt58sfzoEyYbcQonqOIlumwqKJaW0ucIWGGLHJpFLuqlrW02E1Ug2oZGz5US757S9XO5dz3qZWTN7z+zZb9KW9fxgsGbGs95mZv3X8zxr9vpP27Zt+39gGIZhGEZyn/6XYRiGYRgBCyPDMAzDWLAwMgzDMIwFCyPDMAzDWLAwMgzDMIwFCyPDMAzDWLAwMgzDMIxFmYRxHwYnpjA1pbaJwX36OMOsZ/rQ+5M/YOBNtR15uU8fXyV2vI4j1VCOKmbncbpX72Cn3mfKzP535LtwYL/er1LKIoz7Bp9GcmkSnZ2dcus+ekafYZhqZwAHtHD5X9jGly85x9V2Cb079MkINL78IlrT4xh49lG5Db06os9UCqpLYWVcb8h7enxA793DkAD95HU06t1yUZ3tp9/hMta3LMKY2BhD5ot5vccwawWy6HqAc0q4Bp4dB/b4hGXeFbaBZ9sxdlkfj0BDvAaZ9JzeqwIuP4+hFRHotcuFY3Sfn8QFvc+UmdEn5bt0elTvl4x+h+dv6v3yUNJPwh16YwpdDXrHYR6TnQdwkv7sHcTEwSRi8jiQSQ1b1iS5X/uRdE9iuPso2NZkVgwaVe+4g5GXnoeUL9rf0yQexRNSPGh03BefwsCxwkbI5I7bndA7DjdxXna4NLrtxN1TRmS9+3Ttw+lp1Cbb1HuTmXbLR5A79AV9TmDKGp6nt0wLYiDg7ZioczmMVidRN09qg17cwJIoj3rV3TTzQ3Xr0de5ZXWO06BDt60sX9ybb1+yRp7LzjOovCFtC2+7GZwy2e3qb3MioN2JvPcslOC2Ly5Pb5s7WG3tT9d5HvTz7z4fKq1ayvdKR3j7heIv0zKuOvdI4CuPp6wSfX3Wcf2c0Ds6k/S+yyVSksV48jnlOp1coAYa1q5UWxSbMfua+j+dnZNIJ/tx+gidVKLYPGuuEWksJdH/xiE6yTArQuOmeiB9S75I0kUkXqzzqWXE4pZDJtHjulIjupCU1fEozs+rjkNZm9GtkIbkdsydomtO4CrasNu4d3UHsuRYuK71p/Icx4LsdMx5N091XqSX0QccVMfcOGvKKcqdbkOfVdeY6HyNVX1+vgltkWKUlC6JkinLCcw1v6it8QGcprKKtpWua9Eh26JI+7Kz0+UZOAfsdsqjhcRyUQ9E6Qy1tTwi7q/tBXA6dX1+4FwOy0O2u7kntI2LgcJhj9s98J6FElKXovOkthXHqB4kliZdR1CEyLxQh2lzXHpJdEyVrDlxXYPe33lciyK1Ub72C0WXSW7Zz+DOvd5n2i9+gYg26k0u4nzU/18AlZuV2hhHbOEijo7pfSGX14SAxh+kiTkJxGPzuGjFIk9eF71I7WYhmQyzstDoW3bEolMSj6jD3Kvt7suqO/KVmLiSSf1Mj6ZHsJgWr8UmlWfjd7cjJjql8rmhiEZsiN3EtNXBXZgRnWr8ITdeY+W5kPYNHILY0YHGWA1aXzDxWbKKarBhqz5PneUpYfHsEef2AOctcdu5rck7IBFWjFMema6wICvQGQaytU60+5Rr4Yiyf0Ldlb4vRNA9CyWsLpXKc39SWG5N2G3aVlpy9ag34QMhjiOpenl+N8YjCl9p0DPVQM9B4MBTC6unncSgYj8NDKIPOAuhcsLIMFXO3OeLsgNuSwtrSb90wXFB1TExBWBbLHrLEvXMMjJ2x6whd559XSSrkImGZfGpzXJrajLivngGRxXEGYCSO5TEOsokmv3dcqDlDLxo8BRrQ5/4uxwzXisnjHNpZBo6MNir93sH0dGQwewHZCXOI51JoMP5rGMfBtsTyMx+yDFGZuUYTUnX49wVPSre8TraEta+Tdi5gnEtJ3JXZcWDApi7cgOZRGfIrNM53M3YVlkU6BrbPSpG4juaxLt4sTQhunwLS6Kj6g20sMmlJ0b8o+0YOreI1v1uZ6gsiIBPJi6LcnnK6ye8beVgqNAO/9M73nYv17MQVpdS86TrY3XZz5ZMV7uwc0Fu7OYbGHupXbrU/fcvvP3INUxCVeTnLnJizjgWsspNMUafRakn8Tib5Touh0elcsI4dhTdZ9NIHtTfNx5MIn22W7tWz+Bot4o5qm8f++XnHvyZB7OykDvvBhrNqFPGdNzRs4w70vEc54pnQMYxpetIpNuWHs8R9wuA4jwkIo570v9N4ogoH8WIzHnTQZkOS03yMOdV5yiueUnFr9Q1KuZVugtNuUrhpGuXR02mqDWuQNHJybimPk8WBMUyXXefXU9/ecXmWBgR2nZ0QsbjyLLwpEsTT+iYZXk46frbXcZ5y/EshNSl1DzF9dN2GxpRkenaz4jYTJ5y8k09ro4q6/zCMV02jyAFtF/RmGfTbDRLvDLu0ULghYoZhmGYFYIGRfbM4eqEhZFZt9AIlWGYykFuTg/SKoX8/Ias2Urw55kreOuVA3qvOFgYGaZAvN/Y+aCJDSs5Y3K12OH79sxDId863rvwc6KRYtikd3zfMFYpLIwMwzAMY8GfazAMwzCMBQsjwzAMw1iwMDIMwzCMRUkxxra2Nv0XwzAMw1Qn09PT+q9o8OQbhmEYhrFgVyrDMAzDWLAwMgzDMIwFCyPDMAzDWLAwMgzDMIwFCyPDMAzDWLAwMgzDMIwFCyPDVAzvWnOlr11XIvTD39VQjipm53G6V0UutMvkR697WY5V9isJCyOzztGrg+vNfmE9CxXL7VLI6vnZNL78olz016wyXvriv/mguhRWxvWGvKf2wrv3KiRAzgLO5aP62s87+CyX4LIwMusYeqloxXAlXAPPjgN7fMJCywNpYRt4trDlchriNcikaS30KoFWb18RgV67XDhG95mXzKoYo0/Kd+n0qN4vCRoIHkbj7AnnHS1PuvzLN8x6hkbVO+5g5KXnIeVLrxuXSZ2Q4iHX04tPFbxuHrnjdif0joNZo9C/grl3n659OD2N2qRe6zAz7ZaP8K2DaMoanqe3TAtiIODtQGiAcBitTqJuntQGvbiBJVGeBnmykLUWqW49+jq3rM5xa01CWb64N193LUN/nkHlDWlb5F4/0imT3a7+NicC2p3Ie89CCW774vL0trmDvf6jL13nedDPv/t8qLRqKd8rHeHtF4q/TL41GX3lyV6rUl/vP07l3ZYq+P2MAgsjs26xhU/+3XwD52e3iw7aOmYvNJv1woZDnVdb2t9xWJ11gDDuTpiOQ3WaGy7rjkp3IEtZwmbwp+3Hl55EHaNRt93p7oaqq2kD01nmrlMuKN0XhYVgyuLfV50dWeunkWOAYnd4nn1VXumizroX4W1L2Pc8J5SXXRZCtvt2zHnS1WXXbRJ4z0IJqUupeeaqh4TSSeITZ6Dh26fr9Ar7yHGv87ZfXvzPgarLwzNh7aXq7hdG9SxOW4O28i2CzK5UZt1DL5h82UUnsqCPEXOvtjsuGnKzLiR6VmTiSib1M/1yj2AxDdRuUnk2fnc7YqJzyN/hFkIjNsRuYtrq/C7M3ATiD7nxKSvPhfQyYvEIkasdHWiM1aD1BRP/IauoBhu26vOiszt9Slg8e8Q56oitDnzntiZAtLUT26XV3015ZLrCgiy6Yy6CrXWi3aesDncAn8y794UIumehhNWlUnnuTwoRacJu07YkOKhHvQkfjD6JkVS9PE+Do/wDoNKhZ6qBnoPA2KV4VugdzNFOsWSdEHX9jp5bROv+8sRVWRiZdcvc54uyA6ZRsXnpguOCqmNiCoDce87AQm1Zop5ZRsbumDVkodrX0aAl111hioAsL7ttc8TOM+K+eAZHFcQZgM4klVgXMGkok5pwXeyf3kEmVpftRi4CFkZm/TKaEhbiMuau6FHxjtfRlrD2bcLOFYxrOe08niMeFMDclRvIJDpDZp3O4W7GtsqiQNc0oc2xhPtE+k3IzF4sTYgu38JSrA29gRb2AA6Qq3C0HUO+kb6yIAI+mbgsyuUpr5/wtpWDoUI7fOpw7XYv17MQVpdS8wwSCZluT/Dszf3vyJDC2EvtOJ/Ovn/h7UduUrJCi/zcRU7MGcdCVrnJlZptUZJnI9YsrG69rzwqqYjx73A4xsisb2QsxwT+vTEKb4yx8PiFioFkx+PsdDOpccw1dzoxF/81WWnIGFCT+luQNfnBc95MWtGxLN/MCf8kC6czsmI5/phSQTEmT9sSpjwqPzmpw6rn7oQ7yUbty1MSbz195bUmrIS1rcLbFk66vnaV2BNhfOfdtotwz0IJrkupeXra0I7P+etq8pTH663nXJfNvjao/STmnHsfs6H/4489e59Nu56KXOVQeOpot12JsDAyDMMwKwSJXNgEseqAhZFZt1A8g2GYykGxQw/SKlWzXmmCTyX488wVvPXKAb1XHCyMDFMgXherjxzunnuSLDepTZgrbf3Az4nG47ot3ycVlYSFkWEYhmEseFYqwzAMw1iwMDIMwzCMBQsjwzAMw1iwMFYph96Ywukjeicv+zA4MYHBXr1bEHTtFKamaMuVxnEkxq5i24+DPqheDfqw6c2r+M6br+N+fcRh1+vYJsqbeEbvl4n7f3wZ3xn7NQKmUujzl7Fplz5QxdQMBbTdKrDtiX481V6n93xs/z76n3ocAWdXj95BTMj3RWxvHNIHq4z6x/FU//exTe8WRh0ef6of39+udwPZhu8XnUd06tqfQv8Tlc7FSxUJ4yGclg/bafHX2mbf4EQJL4wSqo4vhnFgSB8ijpzW4pWrjc7g6KU0kj8cFFcXSO9jaI7NY7KzE52d3Tg6po8bdm3BP2MZ6ctRPlZeYb64jb/rPx0a6xHDTSy9pffLxH/dKCRxLiVaIoxF/Md7+s9SeebXFRKvPvzTRiDz8cXstltx6lD3deCr9B2976Uu/gDw5R3kPrtaiPfzh0mkz9L7IrbnTurjxSM7/v5+ZwscKBRC3QbULN8tsu3qsKFmGXfDLpbC+23cHf8tZvQhohJ1qdtQg+XQwpSfqhHGfYMdwNlJzCOOzUVZPtVDYmMM89eLe2EOvdGP5NIkuo+e0UcENEJtT2NYilcnJhcS6PIL79AkUkiiK7KVqWmMI5ZJi3YPgITmq+v4slwdflkYwefPtuJ3R47pfZf7N9dHELBCUWLy+R+z8zP8/d924He9/1q2fKkelRGvJnztgWoZ6IR3wKvRIeZFDySv2YPWEiAh6d06j7HhYQzr7ZeXSq8zDSqWP50pThjr6/AAvsKdRb2fhbAUe1rw1YVf4n3r/1SmLjR4Wsb8xyv7HFTJ5xrCWpzYjMnuD/HYxNPAL1zLhayvp3ERs81dSOqPpubFaM1YU+Ry7LJ/WG9hUo3iSEwOxnGx8wCkRFn7ENe0XJ8E9nYhkUkhtZREUqQRmK74P8PdR4Vdpo63XB9Gul0ImCxPBqnXVHmzyiIha8wuQ9L99suU1UBWIQmgzisIyocsSo94Cqit+jdeLGgUq9r37ay08kIWzQ/cn5XK/G4IM/9GnS25Xjvxt/+5A59LMfXt03XfTOFP6MG/6B85dK8V+NKlb+L+ZASH3KQ/eky3n3V81SCX7hEkhGFDfP6bVsxbliq5LE0dJXPjrpgH1PMfP76M1u/4HbaiY3Da05snYdqP8qv94xD+tsuct6+rIGQ9iI7SlHr5j2Nuh0ju0J1b1N+S23hvWFsZdF0ncO6X7+fowMmdtweY8na+BtkJf9PkaKVJ+Mpz+8IwfntD7xD0nu1NeN73qBTzjoVBruRv37Xay4Hq34sNv3fLLuu84SMMv3tHtc3v55HYKep56xqufb0FLWKQcW1ctRel23xT3PiduyBbf/kaxqx2pvO7HtI7/vaje9Y0K/KxbUGXoDJXpi7krm3G7AXx+uvnyPN86bRbnIfPW89iqQqL8dAbXcAlEoMz+GwpBntVG7K+YskuxC8pa2k4lUHiEWUtSSGCEBfHkhKdxBfa9vFbQr79xN4WXHsthUwsiWYhMnStQrkyW65rV0nnsGWJ7cPmWrq23ynP5IJb3pPPiWOUphRDc70WRRL/g+IGv2aOi83zcol828XLKtshBPFSdzVkMPtBgUIWALVv+i8FpkUC9QOIjlxYbXpzhE26Xi2Xom9fWnSNPdjyxZC69jc3EftGh3IZSrGw0hXnXOtPCOwzYleeG8fnqMc/rXI8r2aoH3hLlfVPc8A/b3bjsFIUIYRQ14XOOxZnrnp+tYh/iFPK8qT6kajp871eUYx/rNuudwjzX3mtv00/OIKvvaeu+9NcDeI7Khwbpk60ZwM+ymUlSFGE6HT1uQu3gVuzTgdc940EaoJcpfXbkKjJbbVQB7wH55z83ru1Bd82LjvKk8TWynPLt3LFKTPIuYhKTtw4fD+Nhhu65N8TgwUHLrKYmb4GfLMX/VmxOtEuXwIPxE3J67Btaw1u3zStV4OWb4l6Ups+1CJEZwzXnFHiNjQL0duyU/Q3sh3EObTgezpmKEUR7+VuP8G2pi3BlroYdHz7odv4KEv8KlSX7c1C2LdgFwk1lXec8vieTl+JYuLTMV0Xbz1LYfWFUVhRHbUpTFojt/iD5oFTQpRJufG2M0e7HYuwo0EIkCMuh9BiCca+B+PIzH7oiAztY+kzsa/SnD8rBEuKZQpvH4U4pl+UI8oyTew18Tzl2rRHlm55KC3fCxbompxHOhND8mDAJJkoLho50o07Fmrp5Ch/FN67jX9HE/4l12QUcr3arkzpilWdPqFideOukL71r/jds8/j79Tp72oSVpdrBdZ8s0kMdIRoSI5hXv4/gV98V4nlI65gkav13z8zg4PXsaVRWICOq/c4ahuX8TfZzgH1tN2mQfV7pgcJfIg5ZxDSgfgD5v/p2KGwHm2rtbKIjulbW4RF5o0zKbLP+TvcUFdpUIxMdszUZtQBqzjWrq9fwznZUas8UdOCXhPn2vkArk35LIihA2JgWsg7dAZHu8VA1jfoLdjLkovF9/FL0amP/fEB7KLyWpNMZm7eRs0GLSZyoHAbs9LiUi5oqpd4AMRg4z1hidExPZCQrlCyuHLcFzFwoPYas6zBO3eX3XxE2qFxXxrMWIMbDxWoi4wzkxWYw3qta9+Dli/fs6xHvwAXz6oL46EnkogJq61fTywhV2Rso/m59ATiQiwu5noASYAWrmlrTHCkRfzvND6TD/s+PNZsW0KH0CXUTsX9VJokQK540jF1rRRQcnEaq8627LR4ueVxrzP4BdlFv1ydbwM/pLr6BDJQUBVyQs9eiJcy+IUm68+xmCORXf5oCJGSFksKtWNXPbM1vWKmRMDt9KnzFpbQb3LF6ij2ZU+aITGxxMbGJ7arj4rbKeET+AcHzySxyRG6CPX0X6/xxx3v3/GI1Q4q3dtGNP1iXQk8HZwf6tzsc8qKcTvcIifeSMEUHaW0EPTmuM50JztunRvO7Yothn3fa/b2OWXkzqVfSmto+aFm19q6cxfLXxftJP7c1kYxPS10JHzL85gh4RCDC2l5yWN6ICHbSJ1XqHahMUh2u/qtN/f/5iJK3LecdZH52bFSa8CUXRZ6xsoTj1xdYdTWoplUIrezomOv3Sykjc5vRjxsYojz/wYxsVeIqfN/qcM3lhC5QbrEEQ0JqP5/jhvROiYx6frxi5f/OgGlGQ4J5DBSwnqMshC6Kv+Uims4btlceC3mSOQof2GQQNpuTW9nXDPkjYWpzjvM0nPT2fRmjxATS2wspDs214zUEMjtPjVRxKzdKOSy8DZuUe5h6XZuclylivB6yvoFENuo45LP/FrFIk07kPhaedz/437xzH+Iv0S1HukdEgPT6J8ICRbv4CtsQXOg6+oB1MmqkMuLYl12h+vtgCnmZH8e4On0KGZoT9ev2SA72NzUwDF+clFMPSVqsB04qU7OGg/wBkWEBMNjJVP7Ul3JSgZZUuqw64JWE1OomWy3tHfijW77Wx+5AwQtUIS0unANH5gBjLQ2XRf2tieewuPBj2Mg5amLOuYIHT0HO7fg9u9dD4Br6VJZffUsgbIL41NPPaX/yofo8Gnac0hMTY7QpPszB0PXMG8szYNxzKYylqV2EtcWyG2pXKHxSyRESihdi46ExG85kqv2bRlTNBYsbeYlktakVR7/PnHy+jxiyX59rfmswo1RqK0fzbO+zzEC2Df4tJrko+Ma3nRdaFZvYuFiQS7WYOs2DPVd43ecrQf4jXEpjuDLj5ex6QfqHMURKbbmWC2+ztvLMSzN1SDxI7qW4mQkuLlFlNyxYTNEA4nF3QFSOfFbeG+l8PkDj6GV2udH9bhNMURHyH31/PhDZHyzfv9++ToyjT26fd1vIz3Hdy3iT79bdqxzKaYmT7G1fuM6rhrXcwG4YYwozOC3FMPbqd2WYnOn589g9lYNWnroOE28eA+3PTMd7fMqZmhPkJGuN+MupZihcaXd+K2MiUlXXY48/eXJ+g6SBrf6z4KINBs16mCXoEklVjnFJuN+nokjd3B3WdSVYriWK9G1rITFLoa1HmtLn3ddzToGp6+/c+mcjMMZV7OcRWrnuTiDecpTn2++GcXirlRdaPDkPiP9PeJ/jLsTeGbeFc/UQ7u8eeZwuRZD2WelDgwM4B//+AdGRkZw+/ZtfbTSkPCoCTGFzjKrHug7zg6ki4kfytgjuVnDLMps1AzbtdZm/lmv0QiayVsOaKINDQKcuGkB0A8DtG6cyvnpSSGUUgYJWVL2LG7GgzPRL2g2Kr2DEWaUFwYJjhgV+WfVriY0uelbd4uY+VmFdQmhIq7Uhx9+WApkR0eHPlJ+Dr1huS3khJnyfVu0OpzEZApIPuG3BfMg3cg0IafQDq3IiTcrDrkb3Rjm/T/uFFZn9O8qZWxWWNnlFEUSM+eXdeREmwK+C3zm19avCB3Hg98p0vr1UEo8Uf+wBotiTszz0+WZ6GehXbPlF0XjAnXdjlXBjQ+KmPlZpXUJoSIW49atW/UecP78efz85z/Xe2VEjnDNN4Hut4RrG7J8vd9xhkOdWguuFdWh0bUm9koz7aq3U5RWlfm276sPi3IRlhXP95SFfitIQu/GXj3fcBYNWdFJLK36d51MOXC+MRRCUi7XYFmhWF/g96deqr4uAVRcGIm5uTn89Kc/xZ07hRnfDMMwDLPSVHxW6szMDE6dOsWiyDAMw6wJKiqMk5OTeOWVV/DZZ5/pIwzDMAxT3VREGP/6179K1+mvfvUrfYRhGIZh1gZlF8bl5WUZZ7xy5Yo+Eg0K0ha7RAl9HNzfX9yHqGsGCnhXcm06+YGy+k7S/Q1IPWNRbqV9vMwwDLNWKLswnjhxooh4Iv3CQfDPQ5WCFE37VzNWgIrkufg+PvqyBXuKHDyEIwRQfvKhfn3I/azhJA7QrxHRb0RmZvHhmp/1yzAMk5+KT76JRvjv8+VD/jZfwG8i2r8IsVJUKk/16/Xml+XLiPxpuBDho18LCfoFIoZhmHuM6liPsYDvYjzIZW3UGl3+Ndec72c82OuOqV9iMCvF2Wt8kcW3Bx9hfusuZ50vO/2stPU3OnnzpHoGrFuXL08FfSjrXdfMINeJS6Ko7znz/SoMpV3Umo0MwzBrkKqwGO0fwI2OEDa9Rtd7t7KXGpl5d1j9wrsUJvNL+5ZA0eKX5rhnjS9l8dV8c5cUIDo/9sdlbGlSZ6X40W/y6Wspb2Md5s1T/9ZfoXlGp5CVMtz4oVzRRP++a/aPK/tXKmEYhrm3qQ5hFKKQbymTbGbwW/lLCr5fYLcJWNNN/vI7LX6pf3y2X1hxzjIoOt5J1pyxyqSrlvIS4kaLdL7n/IKDWubEU/SceQpLr5PysNy9cmUCd/WBwDwjItepLOjXa3T8kFYzybgrnGT/bqq9UgnDMMy9TxUIY4kTb+SacLlX+vYuv2JQ+ZGb0lh9tLmuSYp35l6hWoqevUinXF3am3dQnlkxVLrWWTMtJE8PpcVic3HokUT4Chty6S+eeMMwzPqhKoQxbF026TIlqy7oUwV74cr2xx3XJEGWaBCBqzzbC37mwqxlRq5Rim/6/m9wnvY6caJO9rpi+fI0eMTUoui14CKs4cgTbxiGWWdUgTCGr8uWF1oZukatL7ZHpGU7Hz1ruvV/X4vmHbw/RfE9c9w+J4QtLN55Yxa3dV79tK7YhdtZq4znztO/Tpx3+ZVoMdY6PP4t7yKdBrkuZDHkm40qkGs2flH8UsYMwzBrjeqYlcrkxZn0U0DcMRy1hiUtmBw82/ReWOeSYRimMKpi8g0TDrmXd339GsbKJIr0ecbUVD+SSOHt0E8weOINwzDrD7YYqx36VpM+SymbpRgBe61LmrFa1gVYGYZhqhsWRoZhGIaxYFcqwzAMw1iwMDIMwzCMBQsjwzAMw1iUFGNsa2vTfzEMwzBMdTI9Pa3/igZPvmEYhmEYC3alMgzDMIwFCyPDMAzDWLAwMgzDMIwFCyPDMAzDWLAwMgzDMIwFCyPDMAzDWLAwMgzDMIzF2hVGuWr9FE4f0ftlQi3JdBqH9H5OaPWJfP+nEGR6lC9txazEz1Qnfej9yR8w8Kbajrzcp4+vEjtex5FqKEcVs/M43at3sFPvM2Vm/zvyXTiwX+9XKWwxrjr7MPjDJNJnO9HZSVs3joasqM+UmwEc0MLlf2EbX77kHFfbJfTu0Ccj0Pjyi2hNj2Pg2UflNvTqiD5TKaguhZVxvSHv6fEBvXcPQwL0k9fRqHfLRXW1n3fgWej7GcbaFcahA1JIyr2y/MnnSJwO4KTerzy8GPDqQS9WD3BOCdfAs+PAHt/LNe8K28Cz7Ri7rI9HoCFeg0w13djLz2NoRQR67XLhGN3nJ3FB7zNlZvRJ+S6dHtX7JUADz8bZE+77eW4RrXvLI9ol/SQcuR27MInO54yMCOtnoh/xS0qw9g1OoD8pl7uVZFLD6DYrxpMr9JFr4uoudDWoQ/PCasovdCoPlWwGqddsC+sQTk+1IJ2KI6nz9eTpuZaYx6QRwXyL89rnJda1Mt8uIXEKb55BeK9xWNDtKfOL46KnfO4+tX3LFynEkwFl9pU3WpnWGTSq3nEHIy89DylftL+nSbTVCSkeNDrui09h4FhhLxu543Zn3dibOC87XLLqOnH3lBFZ7z5d+3B6GrXJNn1fp93yEeQOfUGfE5iyhufpLdOCGAh4OyYaIBxGq5Oomye1QS9uYEmUR72mbpr5obr16OvcsjrHadCh21aWL+7Nty9ZI89l5xlU3pC2hbfdDE6Z7Hb1tzkR0O5E3nsWSnDbF5ent80drLb2p+s8D/r5d58PlVYt5XulI7z9QvGXaRlXnXsk8JXHU1aJvt5/XJa3Xqel2pGEMn958lOSxXjy3RQyDS1urK33MTTH5nFNi9uZo93aPUjbJNLJLm9crqELLdf1+bPzSLQPCunKxxkc7VbpzesjXhJINs9imNJ8LQXYeR7pQnJJCI9TJssyHDuKbl2OLKTINGP2NX2dSDejTymx7UDanOscxmzz0xHihCdxQP5/qgcJvL7eGWTkJ5E0ZRpGCkl0mXirFkXXPdvJopiDxk31QPqW7ISki0iI5PnUMmJxywGV6HFdNRFdSMrqeBTnxaNEHYca0Ua3QhqS2zF3iq45gatow27j3tUdyJJj4brWn8pzHAuy0zHn3TzVeZGe++Bq3A7FpHk+3YY+q64x0fkaq/r8fBPaIsUoKV0SJVOWE5hrflFb4wM4TWUVbStd16KDs0WR9uWARJdn4Byw2ymPFhLLRT0QRYS0tTwi7q/tBXA6UX1+4NxNtW8j293cE9rGxUDhsMftHnjPQgmpS9F5UtuKY1QPEkuTriMoQmReqMO0OS69JDqmStacuK5B7+88rkWR2ihf+4WiyyS37Gdw517vM+0VxRCovKduoPEFej8PY8Pl8nlDSnOlCjG5uJBAi+6Q932vGUhNumKjJ8iojayjODbbgiGsnEljIZJr1G+lFYUQmV/odMY+Q9rOcy4thLxLlKWwiTNUr9jCxdyxPzkYiCF50NSTLNIY7L61UmRSb+syncFnS0D8QTWsUOWdLLub+V6FRt+yIxad0oI+Rsy92u6+rLojX4mJK5nUz/RoegSLaaB2k8qz8bvbEROdUjncUC6N2BC7iWmrQ7kwIzrV+ENufMrKcyHtGzgEsaMDjbEatMpOS3VcrWJ/w1Z9njrLU8Li2SPO7QHOW+K2c1uTd0AirBinPDJdYUFG7TzLwdY60e5TroUjyv6JGPSY+0IE3bNQwupSqTz3J4Xl1oTdpm2lJVePehM+EGIzkqqX53djvGxCEwY9Uw30HAQOPLWw+tuJLEYzeNDPUrnez5JjjCevC0vvEZKZfXhM6OLsB0baDuH03oR0jyqrJcjCW0GMVdh5DS3lnAFKbkxtmZmNRan6mft8UXbAbWlhLemXLjguqDompgBsi0VvWaKeWRZDWatj1pA7z74uklXIRMOy+NRmuTU1GXFfPIOjCuIMQGeSSqwjThqiAZQzOCCLVli7sWYx2FCnS6L0yTdDk0jVtuAQWU5LllXVu1nYau6kkn2DHdnxtFVDuTEnF6JZdmf+IoZjjstYCL4daySrNJbE04P5ncCFY6xdNXPV798P4swHs8Iy7uDPPvIxmpKux7krelS843W0Jax9m7BzBeNaTuSuyooHBTB35QYyic6QmXdzuJuxrbIo0DW2e7RPpC86nNmLpQnR5VtYirWhN3AETy49MdofbRcd2iJa97udobIgAj6ZuCzK5Smvn/C2lYOhQjv8T+94271cz0JYXUrNk66P1WU/WzJd7cLOBbmxm29g7KV26VL337/w9iPXMFmhRX7uIifmjGMhq9wUY8xtUdreCxkaKRNlmJV6Bh/OxtFFMbh3rfiYdLO6Lsb+jbNIZcU3ioEmrRjXrEk/muVHk4Fc166aOORYdsbtK6xcCKHrp78ndMxz6IAQ0QS65HUUT7StXyGyMpbZb6Vdhm8cPe1HE5oKsLjJMj6btty7U5ioiHCvdcidZ2IUYpNuGXf0LOOO0t2Ufa54BmQcU7qORLpt6fEccb8A5KhYiIjjnvS7jkZE+ShGZM6bDsp0WGqShzmvOkdxzUsqfqWuUTGv0l1oylUKJ127PGoyRa0Z7YsOUcY19XmyICiW6br77Hr6yys2x8KI0LajEzIe1+dPl9xydIzctkLQ5XmTrr/dZZy3HM9CSF1KzVNcP223oREVbVm5z4jYTJ7UBjSZZVRZ5xeO6bLZghTUfkVjnk2z0SzxaPH4C8dO4Grcdbn3JRc9LvlS4IWKGYZhmBWCBkX2zOHqhIWRWbf86JV3Ed8U1ZHJMEyhUOzQg7RKIT+/IWu2Elz94H9jbPh/6L3iYGFkmALxfmPngyY2rOSMydVCfk6Q/V2bopBvHe9d+DnRSDFs0ju+bxirFBZGhmEYhrEow+QbhmEYhrl3YGFkGIZhGAsWRoZhGIaxKCnG2NbWpv9iGIZhmOpkenpa/xUNnnzDMAzDMBbsSmUYhmEYCxZGhmEYhrFgYWQYhmEYCxZGhmEYhrFgYWQYhmEYCxZGhmEYhrFY28Ko11A8fUTvR2YfBiem3PUWGaZY6Me0nbXkLoUsIrxC6HUFAxeiXffo9f8irhLPFM7O4/QuFLlYcZXAFmNZUEJbuEAzK0KgePkXSRVbQR2muH4/LSD7qFxeZ+DZFVg1gISPO/UQ1D1dDwMDuZB2jlXtS6P62s9ZMDzwudcr/JfxvVjbwjh0AJ2dne4q/JE5g6PdnejsPir+Yu5txEsjV9/X4iVX7PeOZhccYRNbQSuAN2JDbBl3P9W71cDok7Iep0f1PuODVs0v9D4zhXDhGL1L5Vl2jKzPvvgURlLL+ogfEvIeYP6m3i8Ppf/yDbkz9yb0DpBJDaP7KMnNIZye6kD6tW4cHaMzvn267pFrmEQXuvRasfNnjcjR/+2Cm+o8JjsP4KT8238ug5STRzj7BifQn7RWkFuYROdzKtXwPAW+ehJU17fxtDdNiVWm3kFMHEy669ZlUhjWgkzleRoXMdvcBZVE9Low0ZBr4okXy6x9Z9bIIzE8PUov1WFsuFyokNAItQdZSxybNfbkWoV1mDadg2efrk3ibqoerXqtvkzqBIZeHZF/Szzr1ynhPj2aJ0/ZQRxGq3yOcqx551s/0c6TOp+H09OoTerzmWmMRBUOX7qqrOIPXQdnX7dZrS/f3eaV8ucZVN6Qtl3Iuf6h1RZ2u+ZaDzFnu9NfEe5ZGCFtX1SevvQMdrretSDd9THVcbhtotMir8f5TXnaLwxfPbLup+98Vvvp8279vchyN9/Iei6d93smiYEdd6I/t3ko0WLch8H2uOjMhfUlLDfalChGpKELLdf1tWfnkWg3Mb+TOKDTo204FUfHoIkG2ueGkcrowxE4c7TbSZPy8xKSJ4nbXreew5SpEFWqq0pTlYOEXV1vidvYUXRb6U4uJdFluVxjyS7EL5l0geQTh/QZphw0xGuQSatXxYw+z4tbX7upTx4jGva4rtRoLqQBnJYW5jgWZMehrc3IC882oZVecrrm1LS46d2uBSs7iHo3Tcf603meEyNj6nT0OTdPbQnJMvmQnZ9lNYv/s5Q87KlrQ9KcP4GraMPuiO1wQIqSmy72aGucLFdR1ga9v/O4VxSpQ2tLn9DXPYqR2e3ofVnfE6uzNuc9nWgAc6+2i/8ryk+vp3Ot1alrazqn9SHbnVaW19eJ+1K7x3a7h9yzMMLqUmyel5/HkDgm60ECr6+305VioY8PnAN2a5crtdGI6Gda95PbUQymdCiAnrG87ReGblu5ibJ6u2WRzw7vMx3lfuZFtG1vchHnI7930SlRGM/gs6UYkgenMOEIVwEI62nSuEHJLeq4NvXkmCm1kUUW2+i11spPgXnWbtYing+yRN10yTqOP2hdKQTWuILPfDCLTOR0meg0yriJ7Ig9L5ERE73JjnwlJtAIMR3VI9vLt7CEetTrPHduaxKvxc+idUZR2VqH2PyUleYAPvENDtw8R7CY9p4LZH9SWLBN2K0HFQPSonXrQp3liLB46PxujFudYR++3VwjBoWHnQEJWSqxuIoQNX53uyjveE7LoVI0bqoXbTDhuv8uX8RcpgYbtur9kHsWRlhdKpUnPUNI9DhtKy21+ENO/I0E8Hy6DX1vHkbj7IkVaGd6pmrQ+sIfcMQMfvwUHAIgUafBXHlctn5KjjGefE5ZO+RSlJ3/G6VbPPsGn0YSKQxrK0taaBUmNM+xDzGbUQMAJZppTEaMTx56owsJctnqdCezhvNMJVlIL4sOuEe6S1XH3If6OLD0eY4R62gq29piwrEsFrVlWxiZjLBsrI5ZYVnaZqvAyH+94lp8esvhYqT7YgYjlUbFHR/FGF5UYl3qpKH93WiNKbF1xD9GYl+eiUNlm3wjXYqvpXwWTwym3aVAqD/zktgYEz3XZ1p4DqErK4ZXfkLzPNKF5JIrbp127FFClrPPEpTsw+Za8QB+od22vYPoyAoSuRx6IgnMfhhJcJlozF25gQxu4hMzEpUvlLVv0fhyJxoyN/BRWaw1M7pX7qqoT/CFmZtCyEPcdJ/eQSZWlx1rDIOuSXS6lvCO19GWWBZtU6I7S6bbE9wRkUuv+YawypWF4rhKjQUh3XnZyHtmlzeLsLYtwOK1mPt80dvuIc9JIYTVpdQ86frsAYcaDBoXdi7IjS0t+Jd+hqtx//3L134U+xRCVOQMUOmuJVerv9zkVi5E1GzXLW1WiKEcFnCJwuh1E04dbMbsL4wldRKTwupK7FXnOr6YjBwPPPmuENiGLp1uB9Ipfzyw/ITmOSTKXmvOme20qL0LXY9kvz43gcFeOnoGRy/Ni4dfHz8Yx6y/EZw8p9AFFbdkygjFYyjGQi+zHFlSTMe4X0THan2ukSu4XxQiz+l5M5qlyT054n5BWO5HUy5PZyHTttyXzshbd1jSnWny1m5h2QaL7uhaxrwixo7CkOmS+1mnS5vpMGX8rN5xBV44puKaprwXjqlYJo3wzbVOPf3lFZvjgovQthfOUjzOuGld1zgJAh2TE0yMq9G0n7/dZZy3DG66sLqUmufohKcNTbrSVWo/I9Y5OVnFicuNYGyU4ppeF2dQ+xWPeTb1RvFu4yLOg+eeaYuw/J+oZLPG12MkYbZnvkZHzlDdeNGalRoCzUhtTzuzSVU8sh/Ns2YGbnEUVAaGYZi1AA2KyjhDdDVY28IoP6GA97OKSBQmbFLAmmctYVSfdsD5vKQ4WBgrD402GYapHOTKtJGf4UB9DrMa79+fZ67grVcO6L3iWHvC6PmesJDv/pQYOqFDzzeM+fBdK3C/1yweFsbqxfONnY+CvmFbwyi3m/+7Nk2u7wDXIfycKEK/SV2DrHFXKsMwDMOUl7LNSmUYhmGYewEWRoZhGIaxYGFkGIZhGAsWRoZhGIaxYGFkGIZhGAsWRoZhGIaxYGFkGIZhGAsWRoZhGIaxYGFkGIZhGAsWRoZhGIaxYGFkGIZhGAsWRoZhGIaxYGFkGIZhGIv7vhar038yDMMwDHPfI7v78bVYXO8yDMMwzPrmvv/4ahGP7P7vLI4MwzAMI7jv4/f/F/7zf7kfD7f/N32IYRiGYdYv932jow//9//8HZ9c+rk+xDAMwzDrFeD/A1SikOzfMFlnAAAAAElFTkSuQmCC;" vertex="1" parent="1">
                    <mxGeometry x="160" y="870" width="472.92" height="150" as="geometry"/>
                </mxCell>
            </root>
        </mxGraphModel>
    </diagram>
</mxfile>